<svg width="333" height="87" viewBox="0 0 333 87" fill="none" xmlns="http://www.w3.org/2000/svg">
<rect width="333" height="87" rx="15" fill="white"/>
<path d="M25.15 17.366H26.55V30.162H25.15V17.366ZM23.19 22.406H25.5V23.596H23.19V22.406ZM22.266 17.618H23.624V29.532H22.266V17.618ZM16.05 25.906H16.918C18.654 25.906 19.942 25.85 21.44 25.556L21.566 26.76C20.026 27.068 18.71 27.124 16.918 27.124H16.05V25.906ZM16.05 18.892H20.796V20.082H17.506V26.48H16.05V18.892ZM37.0349 17.38H38.5049V26.956H37.0349V17.38ZM38.0709 21.44H40.3109V22.658H38.0709V21.44ZM28.5369 18.836H36.0689V19.998H28.5369V18.836ZM32.3029 20.586C34.1229 20.586 35.3969 21.566 35.3969 23.008C35.3969 24.464 34.1229 25.43 32.3029 25.43C30.4689 25.43 29.1949 24.464 29.1949 23.008C29.1949 21.566 30.4689 20.586 32.3029 20.586ZM32.3029 21.72C31.2949 21.72 30.6089 22.21 30.6089 23.008C30.6089 23.82 31.2949 24.296 32.3029 24.296C33.3109 24.296 33.9969 23.82 33.9969 23.008C33.9969 22.21 33.3109 21.72 32.3029 21.72ZM31.5749 17.366H33.0309V19.41H31.5749V17.366ZM30.4129 28.72H39.0229V29.91H30.4129V28.72ZM30.4129 26.214H31.8829V29.224H30.4129V26.214ZM42.0598 18.43H48.1218V24.492H42.0598V18.43ZM46.6938 19.606H43.4878V23.316H46.6938V19.606ZM50.4738 17.38H51.9438V26.522H50.4738V17.38ZM43.5858 28.622H52.3078V29.812H43.5858V28.622ZM43.5858 25.668H45.0558V29.126H43.5858V25.668ZM55.7227 17.94H63.8987V19.13H55.7227V17.94ZM54.2807 22.448H65.8727V23.638H54.2807V22.448ZM59.3207 23.274H60.7767V26.13H59.3207V23.274ZM62.9887 17.94H64.4307V18.92C64.4307 19.998 64.4307 21.286 64.0107 23.008L62.5827 22.854C62.9887 21.174 62.9887 19.97 62.9887 18.92V17.94ZM55.4707 25.724H64.4867V30.162H63.0167V26.9H55.4707V25.724ZM70.9342 18.122H76.5062V19.298H70.9342V18.122ZM72.7122 20.936H74.1542V24.03H72.7122V20.936ZM75.9182 18.122H77.3742V18.878C77.3742 19.69 77.3742 20.838 77.0522 22.294L75.6242 22.168C75.9182 20.74 75.9182 19.69 75.9182 18.878V18.122ZM78.8862 17.366H80.3702V25.262H78.8862V17.366ZM79.7402 20.698H82.0642V21.916H79.7402V20.698ZM70.3182 24.548L70.1642 23.358C72.4742 23.358 75.5402 23.33 78.1022 22.994L78.2002 24.044C75.5682 24.492 72.6002 24.548 70.3182 24.548ZM76.1562 25.416C78.8302 25.416 80.4822 26.298 80.4822 27.768C80.4822 29.266 78.8302 30.134 76.1562 30.134C73.4822 30.134 71.8302 29.266 71.8302 27.768C71.8302 26.298 73.4822 25.416 76.1562 25.416ZM76.1562 26.55C74.3642 26.55 73.3142 26.984 73.3142 27.768C73.3142 28.566 74.3642 28.986 76.1562 28.986C77.9482 28.986 78.9842 28.566 78.9842 27.768C78.9842 26.984 77.9482 26.55 76.1562 26.55ZM88.1251 18.696H89.3991V19.172C89.3991 21.44 87.2291 23.19 84.3591 23.624L83.7991 22.476C86.3051 22.14 88.1251 20.684 88.1251 19.172V18.696ZM88.5311 18.696H89.7911V19.172C89.7911 20.684 91.6251 22.14 94.1171 22.476L93.5711 23.624C90.6871 23.19 88.5311 21.44 88.5311 19.172V18.696ZM88.1951 25.374H89.6511V30.162H88.1951V25.374ZM83.1831 24.548H94.7471V25.738H83.1831V24.548ZM84.2331 18.094H93.6551V19.27H84.2331V18.094ZM96.692 18.122H102.264V19.298H96.692V18.122ZM98.47 20.936H99.912V24.03H98.47V20.936ZM101.676 18.122H103.132V18.878C103.132 19.69 103.132 20.838 102.81 22.294L101.382 22.168C101.676 20.74 101.676 19.69 101.676 18.878V18.122ZM104.644 17.366H106.128V25.262H104.644V17.366ZM105.498 20.698H107.822V21.916H105.498V20.698ZM96.076 24.548L95.922 23.358C98.232 23.358 101.298 23.33 103.86 22.994L103.958 24.044C101.326 24.492 98.358 24.548 96.076 24.548ZM101.914 25.416C104.588 25.416 106.24 26.298 106.24 27.768C106.24 29.266 104.588 30.134 101.914 30.134C99.24 30.134 97.588 29.266 97.588 27.768C97.588 26.298 99.24 25.416 101.914 25.416ZM101.914 26.55C100.122 26.55 99.072 26.984 99.072 27.768C99.072 28.566 100.122 28.986 101.914 28.986C103.706 28.986 104.742 28.566 104.742 27.768C104.742 26.984 103.706 26.55 101.914 26.55ZM114.681 19.172H118.531V20.362H114.681V19.172ZM114.681 22H118.531V23.19H114.681V22ZM110.915 25.57H119.539V30.162H118.069V26.746H110.915V25.57ZM118.069 17.366H119.539V24.926H118.069V17.366ZM112.441 18.052C114.331 18.052 115.773 19.354 115.773 21.174C115.773 23.008 114.331 24.296 112.441 24.296C110.537 24.296 109.109 23.008 109.109 21.174C109.109 19.354 110.537 18.052 112.441 18.052ZM112.441 19.312C111.335 19.312 110.509 20.054 110.509 21.174C110.509 22.308 111.335 23.05 112.441 23.05C113.547 23.05 114.373 22.308 114.373 21.174C114.373 20.054 113.547 19.312 112.441 19.312ZM125.068 18.416H126.272V20.516C126.272 23.61 124.886 26.452 122.59 27.572L121.708 26.354C123.752 25.43 125.068 22.966 125.068 20.516V18.416ZM125.348 18.416H126.538V20.516C126.538 22.868 127.84 25.22 129.856 26.116L128.988 27.292C126.734 26.228 125.348 23.498 125.348 20.516V18.416ZM130.878 17.352H132.348V30.176H130.878V17.352ZM138.473 18.122H144.045V19.298H138.473V18.122ZM140.251 20.936H141.693V24.03H140.251V20.936ZM143.457 18.122H144.913V18.878C144.913 19.69 144.913 20.838 144.591 22.294L143.163 22.168C143.457 20.74 143.457 19.69 143.457 18.878V18.122ZM146.425 17.366H147.909V25.262H146.425V17.366ZM147.279 20.698H149.603V21.916H147.279V20.698ZM137.857 24.548L137.703 23.358C140.013 23.358 143.079 23.33 145.641 22.994L145.739 24.044C143.107 24.492 140.139 24.548 137.857 24.548ZM143.695 25.416C146.369 25.416 148.021 26.298 148.021 27.768C148.021 29.266 146.369 30.134 143.695 30.134C141.021 30.134 139.369 29.266 139.369 27.768C139.369 26.298 141.021 25.416 143.695 25.416ZM143.695 26.55C141.903 26.55 140.853 26.984 140.853 27.768C140.853 28.566 141.903 28.986 143.695 28.986C145.487 28.986 146.523 28.566 146.523 27.768C146.523 26.984 145.487 26.55 143.695 26.55ZM153.732 18.15H154.95V19.634C154.95 22.154 153.662 24.24 151.38 25.066L150.596 23.918C152.64 23.218 153.732 21.51 153.732 19.634V18.15ZM154.012 18.15H155.202V19.662C155.202 21.342 156.308 22.966 158.254 23.638L157.512 24.786C155.286 24.016 154.012 21.986 154.012 19.662V18.15ZM159.234 17.366H160.704V26.774H159.234V17.366ZM160.27 21.188H162.51V22.406H160.27V21.188ZM152.626 28.72H161.222V29.91H152.626V28.72ZM152.626 25.878H154.11V29.322H152.626V25.878ZM164.987 18.164H172.995V19.326H164.987V18.164ZM163.601 23.624H175.165V24.828H163.601V23.624ZM168.599 24.45H170.069V30.176H168.599V24.45ZM172.267 18.164H173.709V19.284C173.709 20.642 173.709 22.154 173.219 24.366L171.777 24.184C172.267 22.084 172.267 20.586 172.267 19.284V18.164Z" fill="#333333"/>
<circle cx="30" cy="59" r="15" fill="#FFCC00"/>
<path d="M58.906 65.196C57.254 65.196 56.092 64.622 55.336 63.74L56.484 62.172C57.114 62.76 57.842 63.18 58.654 63.18C59.62 63.18 60.25 62.774 60.25 61.99C60.25 61.094 59.774 60.562 57.59 60.562V58.798C59.368 58.798 59.928 58.266 59.928 57.44C59.928 56.726 59.508 56.334 58.738 56.334C58.038 56.334 57.506 56.642 56.876 57.202L55.616 55.676C56.582 54.864 57.618 54.388 58.85 54.388C61.006 54.388 62.42 55.396 62.42 57.258C62.42 58.294 61.86 59.106 60.754 59.554V59.624C61.902 59.974 62.756 60.814 62.756 62.158C62.756 64.104 60.978 65.196 58.906 65.196Z" fill="#F4C200"/>
<path fill-rule="evenodd" clip-rule="evenodd" d="M31.6515 53.9614L36.4974 62.3715C36.604 62.6225 36.6507 62.8266 36.664 63.0387C36.6907 63.5341 36.5174 64.0157 36.1774 64.3863C35.8375 64.7556 35.3776 64.9736 34.8776 65H25.1193C24.9126 64.9874 24.706 64.9405 24.5127 64.8679C23.5462 64.4781 23.0796 63.3815 23.4729 62.4309L28.3521 53.9554C28.5187 53.6575 28.772 53.4005 29.0853 53.2354C29.9918 52.7327 31.1449 53.063 31.6515 53.9614ZM30.5784 59.5038C30.5784 59.8209 30.3184 60.0858 29.9985 60.0858C29.6785 60.0858 29.4119 59.8209 29.4119 59.5038V57.635C29.4119 57.3172 29.6785 57.0603 29.9985 57.0603C30.3184 57.0603 30.5784 57.3172 30.5784 57.635V59.5038ZM29.9985 62.3451C29.6785 62.3451 29.4119 62.0802 29.4119 61.7637C29.4119 61.446 29.6785 61.1817 29.9985 61.1817C30.3184 61.1817 30.5784 61.44 30.5784 61.7565C30.5784 62.0802 30.3184 62.3451 29.9985 62.3451Z" fill="white"/>
<circle cx="90" cy="59" r="15" fill="#D43A18"/>
<path fill-rule="evenodd" clip-rule="evenodd" d="M94.801 53.8858C95.2975 54.0493 95.633 54.5075 95.633 55.0174L95.6665 59.4425C95.6732 60.7827 95.1834 62.0836 94.2843 63.1041C93.875 63.5748 93.3449 63.9735 92.6739 64.3331L90.2919 65.6079C90.2181 65.6471 90.1376 65.6667 90.0571 65.6667C89.9766 65.6667 89.8893 65.6471 89.8155 65.6079L87.4134 64.3658C86.7357 64.0128 86.2056 63.6205 85.7896 63.1564C84.877 62.1496 84.3671 60.8487 84.3604 59.5086L84.3335 55.0821C84.3268 54.5722 84.6623 54.1153 85.1521 53.9447L89.5605 52.4025C89.8222 52.3103 90.1107 52.3103 90.3791 52.4025L94.801 53.8858ZM91.6138 60.3911C91.8084 60.2015 91.8084 59.8877 91.6138 59.6981L90.7079 58.815L91.6138 57.9331C91.8084 57.7435 91.8084 57.4362 91.6138 57.2395C91.4192 57.0499 91.0971 57.0499 90.9025 57.2395L89.9967 58.1227L89.0908 57.2395C88.8963 57.0499 88.5809 57.0499 88.3796 57.2395C88.185 57.4362 88.185 57.7435 88.3796 57.9331L89.2854 58.815L88.3796 59.6981C88.185 59.8877 88.185 60.2015 88.3796 60.3911C88.4802 60.4892 88.6077 60.5343 88.7352 60.5343C88.8694 60.5343 88.9969 60.4892 89.0908 60.3911L89.9967 59.5086L90.9025 60.3911C91.0032 60.4892 91.1307 60.5343 91.2581 60.5343C91.3856 60.5343 91.5198 60.4892 91.6138 60.3911Z" fill="white"/>
<path d="M118.906 65.196C117.254 65.196 116.092 64.622 115.336 63.74L116.484 62.172C117.114 62.76 117.842 63.18 118.654 63.18C119.62 63.18 120.25 62.774 120.25 61.99C120.25 61.094 119.774 60.562 117.59 60.562V58.798C119.368 58.798 119.928 58.266 119.928 57.44C119.928 56.726 119.508 56.334 118.738 56.334C118.038 56.334 117.506 56.642 116.876 57.202L115.616 55.676C116.582 54.864 117.618 54.388 118.85 54.388C121.006 54.388 122.42 55.396 122.42 57.258C122.42 58.294 121.86 59.106 120.754 59.554V59.624C121.902 59.974 122.756 60.814 122.756 62.158C122.756 64.104 120.978 65.196 118.906 65.196Z" fill="#D43A18"/>
</svg>
