<svg width="333" height="246" viewBox="0 0 333 246" fill="none" xmlns="http://www.w3.org/2000/svg">
<rect width="333" height="246" rx="15" fill="white"/>
<path d="M16.204 29V18.57H20.026C22.252 18.57 24.1 19.34 24.1 21.86C24.1 24.31 22.252 25.332 20.026 25.332H18.71V29H16.204ZM18.71 23.358H19.83C21.02 23.358 21.664 22.84 21.664 21.86C21.664 20.88 21.02 20.558 19.83 20.558H18.71V23.358ZM21.832 29L19.578 24.688L21.272 23.05L24.632 29H21.832ZM29.2723 29.196C26.9763 29.196 25.2123 27.656 25.2123 25.01C25.2123 22.434 27.0743 20.838 28.9923 20.838C31.2883 20.838 32.4083 22.504 32.4083 24.674C32.4083 25.122 32.3523 25.556 32.2963 25.752H27.6203C27.8443 26.844 28.6003 27.292 29.6083 27.292C30.1823 27.292 30.7143 27.124 31.2883 26.788L32.1143 28.286C31.2883 28.874 30.1963 29.196 29.2723 29.196ZM27.5783 24.114H30.2943C30.2943 23.33 29.9443 22.742 29.0343 22.742C28.3483 22.742 27.7463 23.176 27.5783 24.114ZM34.0002 31.898V21.034H36.0302L36.2122 21.804H36.2542C36.8842 21.244 37.6682 20.838 38.4942 20.838C40.3982 20.838 41.6022 22.434 41.6022 24.884C41.6022 27.628 39.9642 29.196 38.2562 29.196C37.5842 29.196 36.9402 28.902 36.4082 28.37L36.4922 29.616V31.898H34.0002ZM37.6682 27.152C38.4242 27.152 39.0402 26.522 39.0402 24.926C39.0402 23.526 38.6342 22.868 37.7522 22.868C37.2902 22.868 36.9122 23.078 36.4922 23.54V26.69C36.8842 27.04 37.2902 27.152 37.6682 27.152ZM46.673 29.196C44.643 29.196 42.767 27.656 42.767 25.01C42.767 22.378 44.643 20.838 46.673 20.838C48.689 20.838 50.565 22.378 50.565 25.01C50.565 27.656 48.689 29.196 46.673 29.196ZM46.673 27.18C47.597 27.18 48.017 26.34 48.017 25.01C48.017 23.694 47.597 22.854 46.673 22.854C45.735 22.854 45.315 23.694 45.315 25.01C45.315 26.34 45.735 27.18 46.673 27.18ZM52.1291 29V21.034H54.1591L54.3411 22.42H54.3831C54.9711 21.356 55.8531 20.838 56.6511 20.838C57.1271 20.838 57.3931 20.908 57.6171 21.006L57.2111 23.148C56.9171 23.078 56.6791 23.022 56.3291 23.022C55.7411 23.022 55.0271 23.4 54.6211 24.45V29H52.1291ZM61.7592 29.196C59.7572 29.196 58.9452 27.922 58.9452 26.046V22.98H57.8672V21.132L59.0992 21.034L59.3792 18.92H61.4372V21.034H63.3132V22.98H61.4372V26.018C61.4372 26.9 61.8572 27.25 62.4452 27.25C62.6972 27.25 62.9772 27.166 63.1732 27.096L63.5652 28.902C63.1452 29.028 62.5712 29.196 61.7592 29.196ZM68.0731 29.196C65.7771 29.196 64.0131 27.656 64.0131 25.01C64.0131 22.434 65.8751 20.838 67.7931 20.838C70.0891 20.838 71.2091 22.504 71.2091 24.674C71.2091 25.122 71.1531 25.556 71.0971 25.752H66.4211C66.6451 26.844 67.4011 27.292 68.4091 27.292C68.9831 27.292 69.5151 27.124 70.0891 26.788L70.9151 28.286C70.0891 28.874 68.9971 29.196 68.0731 29.196ZM66.3791 24.114H69.0951C69.0951 23.33 68.7451 22.742 67.8351 22.742C67.1491 22.742 66.5471 23.176 66.3791 24.114ZM75.657 29.196C73.669 29.196 72.395 27.614 72.395 25.01C72.395 22.406 74.033 20.838 75.685 20.838C76.567 20.838 77.085 21.16 77.603 21.664L77.519 20.474V17.814H80.011V29H77.981L77.799 28.23H77.743C77.183 28.79 76.413 29.196 75.657 29.196ZM76.315 27.152C76.791 27.152 77.169 26.998 77.519 26.48V23.344C77.141 22.994 76.693 22.868 76.273 22.868C75.587 22.868 74.957 23.512 74.957 24.982C74.957 26.508 75.461 27.152 76.315 27.152ZM85.411 29V18.57H89.051C91.207 18.57 92.929 19.158 92.929 21.16C92.929 22.084 92.411 23.092 91.571 23.414V23.47C92.621 23.75 93.419 24.534 93.419 25.92C93.419 28.048 91.613 29 89.345 29H85.411ZM87.917 22.714H88.953C90.017 22.714 90.493 22.252 90.493 21.538C90.493 20.796 90.003 20.488 88.953 20.488H87.917V22.714ZM87.917 27.082H89.163C90.367 27.082 90.983 26.648 90.983 25.752C90.983 24.898 90.381 24.548 89.163 24.548H87.917V27.082ZM95.5469 32.066C95.0289 32.066 94.7069 32.01 94.3709 31.912L94.8189 30.022C94.9589 30.05 95.1689 30.12 95.3509 30.12C96.1069 30.12 96.4989 29.728 96.6809 29.168L96.7929 28.762L93.7409 21.034H96.2469L97.3109 24.338C97.5489 25.066 97.7169 25.808 97.9269 26.592H97.9969C98.1509 25.836 98.3329 25.094 98.5149 24.338L99.4389 21.034H101.819L99.0749 29.014C98.3049 31.058 97.4369 32.066 95.5469 32.066ZM110.569 29.196C107.783 29.196 106.341 27.614 106.341 24.1V18.57H108.833V24.366C108.833 26.34 109.421 27.04 110.569 27.04C111.703 27.04 112.333 26.34 112.333 24.366V18.57H114.741V24.1C114.741 27.614 113.341 29.196 110.569 29.196ZM119.013 29.196C117.977 29.196 116.759 28.748 115.947 28.076L117.053 26.522C117.781 27.068 118.439 27.362 119.069 27.362C119.727 27.362 120.007 27.124 120.007 26.732C120.007 26.256 119.237 26.032 118.425 25.71C117.473 25.332 116.395 24.688 116.395 23.358C116.395 21.86 117.613 20.838 119.475 20.838C120.721 20.838 121.645 21.342 122.317 21.86L121.211 23.344C120.637 22.938 120.077 22.672 119.559 22.672C118.985 22.672 118.719 22.868 118.719 23.246C118.719 23.722 119.405 23.904 120.231 24.198C121.225 24.576 122.331 25.15 122.331 26.592C122.331 28.062 121.183 29.196 119.013 29.196ZM127.382 29.196C125.086 29.196 123.322 27.656 123.322 25.01C123.322 22.434 125.184 20.838 127.102 20.838C129.398 20.838 130.518 22.504 130.518 24.674C130.518 25.122 130.462 25.556 130.406 25.752H125.73C125.954 26.844 126.71 27.292 127.718 27.292C128.292 27.292 128.824 27.124 129.398 26.788L130.224 28.286C129.398 28.874 128.306 29.196 127.382 29.196ZM125.688 24.114H128.404C128.404 23.33 128.054 22.742 127.144 22.742C126.458 22.742 125.856 23.176 125.688 24.114ZM132.11 29V21.034H134.14L134.322 22.42H134.364C134.952 21.356 135.834 20.838 136.632 20.838C137.108 20.838 137.374 20.908 137.598 21.006L137.192 23.148C136.898 23.078 136.66 23.022 136.31 23.022C135.722 23.022 135.008 23.4 134.602 24.45V29H132.11ZM140.738 29.196C139.702 29.196 138.484 28.748 137.672 28.076L138.778 26.522C139.506 27.068 140.164 27.362 140.794 27.362C141.452 27.362 141.732 27.124 141.732 26.732C141.732 26.256 140.962 26.032 140.15 25.71C139.198 25.332 138.12 24.688 138.12 23.358C138.12 21.86 139.338 20.838 141.2 20.838C142.446 20.838 143.37 21.342 144.042 21.86L142.936 23.344C142.362 22.938 141.802 22.672 141.284 22.672C140.71 22.672 140.444 22.868 140.444 23.246C140.444 23.722 141.13 23.904 141.956 24.198C142.95 24.576 144.056 25.15 144.056 26.592C144.056 28.062 142.908 29.196 140.738 29.196Z" fill="#333333"/>
<path d="M307.6 18.2001L312.4 23.0001L307.6 27.8001" stroke="#252525"/>
<circle cx="30" cy="59" r="15" fill="#FFCC00"/>
<path fill-rule="evenodd" clip-rule="evenodd" d="M31.6515 53.9614L36.4974 62.3715C36.604 62.6225 36.6507 62.8266 36.664 63.0387C36.6907 63.5341 36.5174 64.0157 36.1774 64.3863C35.8375 64.7556 35.3776 64.9736 34.8776 65H25.1193C24.9126 64.9874 24.706 64.9405 24.5127 64.8679C23.5462 64.4781 23.0796 63.3815 23.4729 62.4309L28.3521 53.9554C28.5187 53.6575 28.772 53.4005 29.0853 53.2354C29.9918 52.7327 31.1449 53.063 31.6515 53.9614ZM30.5784 59.5038C30.5784 59.8209 30.3184 60.0858 29.9985 60.0858C29.6785 60.0858 29.4119 59.8209 29.4119 59.5038V57.635C29.4119 57.3172 29.6785 57.0603 29.9985 57.0603C30.3184 57.0603 30.5784 57.3172 30.5784 57.635V59.5038ZM29.9985 62.3451C29.6785 62.3451 29.4119 62.0802 29.4119 61.7637C29.4119 61.446 29.6785 61.1817 29.9985 61.1817C30.3184 61.1817 30.5784 61.44 30.5784 61.7565C30.5784 62.0802 30.3184 62.3451 29.9985 62.3451Z" fill="white"/>
<path d="M57.092 48.676H61.868V49.684H57.092V48.676ZM58.616 51.088H59.852V53.74H58.616V51.088ZM61.364 48.676H62.612V49.324C62.612 50.02 62.612 51.004 62.336 52.252L61.112 52.144C61.364 50.92 61.364 50.02 61.364 49.324V48.676ZM63.908 48.028H65.18V54.796H63.908V48.028ZM64.64 50.884H66.632V51.928H64.64V50.884ZM56.564 54.184L56.432 53.164C58.412 53.164 61.04 53.14 63.236 52.852L63.32 53.752C61.064 54.136 58.52 54.184 56.564 54.184ZM61.568 54.928C63.86 54.928 65.276 55.684 65.276 56.944C65.276 58.228 63.86 58.972 61.568 58.972C59.276 58.972 57.86 58.228 57.86 56.944C57.86 55.684 59.276 54.928 61.568 54.928ZM61.568 55.9C60.032 55.9 59.132 56.272 59.132 56.944C59.132 57.628 60.032 57.988 61.568 57.988C63.104 57.988 63.992 57.628 63.992 56.944C63.992 56.272 63.104 55.9 61.568 55.9ZM71.8271 49.168H72.9191V49.576C72.9191 51.52 71.0591 53.02 68.5991 53.392L68.1191 52.408C70.2671 52.12 71.8271 50.872 71.8271 49.576V49.168ZM72.1751 49.168H73.2551V49.576C73.2551 50.872 74.8271 52.12 76.9631 52.408L76.4951 53.392C74.0231 53.02 72.1751 51.52 72.1751 49.576V49.168ZM71.8871 54.892H73.1351V58.996H71.8871V54.892ZM67.5911 54.184H77.5031V55.204H67.5911V54.184ZM68.4911 48.652H76.5671V49.66H68.4911V48.652ZM81.8654 48.676H86.6414V49.684H81.8654V48.676ZM83.3894 51.088H84.6254V53.74H83.3894V51.088ZM86.1374 48.676H87.3854V49.324C87.3854 50.02 87.3854 51.004 87.1094 52.252L85.8854 52.144C86.1374 50.92 86.1374 50.02 86.1374 49.324V48.676ZM88.6814 48.028H89.9534V54.796H88.6814V48.028ZM89.4134 50.884H91.4054V51.928H89.4134V50.884ZM81.3374 54.184L81.2054 53.164C83.1854 53.164 85.8134 53.14 88.0094 52.852L88.0934 53.752C85.8374 54.136 83.2934 54.184 81.3374 54.184ZM86.3414 54.928C88.6334 54.928 90.0494 55.684 90.0494 56.944C90.0494 58.228 88.6334 58.972 86.3414 58.972C84.0494 58.972 82.6334 58.228 82.6334 56.944C82.6334 55.684 84.0494 54.928 86.3414 54.928ZM86.3414 55.9C84.8054 55.9 83.9054 56.272 83.9054 56.944C83.9054 57.628 84.8054 57.988 86.3414 57.988C87.8774 57.988 88.7654 57.628 88.7654 56.944C88.7654 56.272 87.8774 55.9 86.3414 55.9ZM94.9445 48.7H95.9885V49.972C95.9885 52.132 94.8845 53.92 92.9285 54.628L92.2565 53.644C94.0085 53.044 94.9445 51.58 94.9445 49.972V48.7ZM95.1845 48.7H96.2045V49.996C96.2045 51.436 97.1525 52.828 98.8205 53.404L98.1845 54.388C96.2765 53.728 95.1845 51.988 95.1845 49.996V48.7ZM99.6605 48.028H100.921V56.092H99.6605V48.028ZM100.549 51.304H102.469V52.348H100.549V51.304ZM93.9965 57.76H101.365V58.78H93.9965V57.76ZM93.9965 55.324H95.2685V58.276H93.9965V55.324ZM104.592 48.712H111.456V49.708H104.592V48.712ZM103.404 53.392H113.316V54.424H103.404V53.392ZM107.688 54.1H108.948V59.008H107.688V54.1ZM110.832 48.712H112.068V49.672C112.068 50.836 112.068 52.132 111.648 54.028L110.412 53.872C110.832 52.072 110.832 50.788 110.832 49.672V48.712ZM124.71 48.028H125.97V54.664H124.71V48.028ZM125.334 50.776H127.218V51.82H125.334V50.776ZM118.638 48.676H119.538V49.528C119.538 51.136 119.106 53.032 117.666 53.908L116.982 53.008C118.242 52.24 118.638 50.728 118.638 49.528V48.676ZM118.938 48.676H119.826V49.528C119.826 50.656 120.078 52.24 121.314 53.092L120.714 54.028C119.238 53.08 118.938 51.028 118.938 49.528V48.676ZM121.602 48.676H122.49V49.528C122.49 51.088 122.178 53.104 120.714 54.028L120.114 53.092C121.35 52.252 121.602 50.692 121.602 49.528V48.676ZM121.878 48.676H122.79V49.528C122.79 50.824 123.174 52.264 124.434 53.008L123.75 53.908C122.31 53.056 121.878 51.232 121.878 49.528V48.676ZM122.334 54.784C124.638 54.784 126.066 55.564 126.066 56.884C126.066 58.204 124.638 58.984 122.334 58.984C120.042 58.984 118.614 58.204 118.614 56.884C118.614 55.564 120.042 54.784 122.334 54.784ZM122.334 55.78C120.786 55.78 119.886 56.164 119.886 56.884C119.886 57.592 120.786 57.988 122.334 57.988C123.894 57.988 124.794 57.592 124.794 56.884C124.794 56.164 123.894 55.78 122.334 55.78ZM135.473 48.028H136.733V54.316H135.473V48.028ZM136.385 50.596H138.281V51.628H136.385V50.596ZM129.737 54.82H136.733V58.864H129.737V54.82ZM135.497 55.816H130.973V57.856H135.497V55.816ZM131.225 48.652C132.893 48.652 134.141 49.732 134.141 51.28C134.141 52.804 132.893 53.884 131.225 53.884C129.557 53.884 128.321 52.804 128.321 51.28C128.321 49.732 129.557 48.652 131.225 48.652ZM131.225 49.708C130.253 49.708 129.545 50.332 129.545 51.28C129.545 52.228 130.253 52.828 131.225 52.828C132.197 52.828 132.917 52.228 132.917 51.28C132.917 50.332 132.197 49.708 131.225 49.708ZM139.216 53.32H149.128V54.328H139.216V53.32ZM143.548 51.616H144.796V53.728H143.548V51.616ZM140.44 51.22H147.988V52.216H140.44V51.22ZM140.44 48.52H147.916V49.516H141.688V51.832H140.44V48.52ZM144.148 55.012C146.5 55.012 147.928 55.732 147.928 57.004C147.928 58.276 146.5 58.996 144.148 58.996C141.796 58.996 140.368 58.276 140.368 57.004C140.368 55.732 141.796 55.012 144.148 55.012ZM144.148 55.972C142.54 55.972 141.64 56.332 141.64 57.004C141.64 57.676 142.54 58.024 144.148 58.024C145.756 58.024 146.656 57.676 146.656 57.004C146.656 56.332 145.756 55.972 144.148 55.972ZM156.082 58.168C154.402 58.168 153.034 56.752 153.034 53.752C153.034 50.368 154.618 49.012 156.37 49.012C157.354 49.012 158.074 49.42 158.578 49.96L157.822 50.8C157.498 50.416 156.958 50.14 156.442 50.14C155.266 50.14 154.318 51.052 154.318 53.752C154.318 56.032 154.99 57.1 156.07 57.1C156.838 57.1 157.438 56.404 157.438 55.264C157.438 54.124 156.922 53.488 155.986 53.488C155.458 53.488 154.822 53.8 154.294 54.604L154.234 53.596C154.75 52.9 155.566 52.492 156.226 52.492C157.714 52.492 158.722 53.392 158.722 55.264C158.722 57.016 157.51 58.168 156.082 58.168ZM162.458 58.168C161.066 58.168 160.19 57.604 159.554 56.98L160.226 56.08C160.718 56.584 161.366 57.028 162.29 57.028C163.286 57.028 164.03 56.32 164.03 55.144C164.03 53.98 163.358 53.308 162.35 53.308C161.798 53.308 161.462 53.464 160.946 53.8L160.262 53.368L160.526 49.168H165.014V50.344H161.738L161.534 52.6C161.906 52.408 162.266 52.3 162.746 52.3C164.222 52.3 165.434 53.164 165.434 55.108C165.434 57.052 163.994 58.168 162.458 58.168ZM169.302 58.168C167.91 58.168 167.034 57.604 166.398 56.98L167.07 56.08C167.562 56.584 168.21 57.028 169.134 57.028C170.13 57.028 170.874 56.32 170.874 55.144C170.874 53.98 170.202 53.308 169.194 53.308C168.642 53.308 168.306 53.464 167.79 53.8L167.106 53.368L167.37 49.168H171.858V50.344H168.582L168.378 52.6C168.75 52.408 169.11 52.3 169.59 52.3C171.066 52.3 172.278 53.164 172.278 55.108C172.278 57.052 170.838 58.168 169.302 58.168ZM173.494 55.132V54.1H176.662V55.132H173.494ZM180.435 58.168C179.043 58.168 178.167 57.604 177.531 56.98L178.203 56.08C178.695 56.584 179.343 57.028 180.267 57.028C181.263 57.028 182.007 56.32 182.007 55.144C182.007 53.98 181.335 53.308 180.327 53.308C179.775 53.308 179.439 53.464 178.923 53.8L178.239 53.368L178.503 49.168H182.991V50.344H179.715L179.511 52.6C179.883 52.408 180.243 52.3 180.723 52.3C182.199 52.3 183.411 53.164 183.411 55.108C183.411 57.052 181.971 58.168 180.435 58.168ZM189.787 51.04H192.787V52.06H189.787V51.04ZM192.439 48.04H193.699V56.14H192.439V48.04ZM186.559 57.76H193.951V58.78H186.559V57.76ZM186.559 55.348H187.819V58.312H186.559V55.348ZM185.107 48.76H186.355V50.572H188.935V48.76H190.171V54.34H185.107V48.76ZM186.355 51.544V53.332H188.935V51.544H186.355ZM198.438 49.672H199.446V51.208C199.446 53.62 198.21 56.008 196.326 56.908L195.606 55.912C197.298 55.132 198.438 53.08 198.438 51.208V49.672ZM198.702 49.672H199.698V51.208C199.698 53.02 200.826 54.916 202.542 55.636L201.846 56.632C199.938 55.78 198.702 53.56 198.702 51.208V49.672ZM196.002 49.12H202.134V50.164H196.002V49.12ZM203.418 48.028H204.678V58.996H203.418V48.028Z" fill="#333333"/>
<path d="M59.99 65.64H60.9V65.98C60.9 67.6 59.35 68.85 57.3 69.16L56.9 68.34C58.69 68.1 59.99 67.06 59.99 65.98V65.64ZM60.28 65.64H61.18V65.98C61.18 67.06 62.49 68.1 64.27 68.34L63.88 69.16C61.82 68.85 60.28 67.6 60.28 65.98V65.64ZM60.04 70.41H61.08V73.83H60.04V70.41ZM56.46 69.82H64.72V70.67H56.46V69.82ZM57.21 65.21H63.94V66.05H57.21V65.21ZM68.6092 65.33C70.0392 65.33 71.0792 66.23 71.0792 67.52C71.0792 68.82 70.0392 69.72 68.6092 69.72C67.1792 69.72 66.1192 68.82 66.1192 67.52C66.1192 66.23 67.1792 65.33 68.6092 65.33ZM68.6092 66.23C67.7692 66.23 67.1492 66.73 67.1492 67.52C67.1492 68.31 67.7692 68.82 68.6092 68.82C69.4392 68.82 70.0592 68.31 70.0592 67.52C70.0592 66.73 69.4392 66.23 68.6092 66.23ZM72.1292 64.68H73.1792V73.84H72.1292V64.68ZM65.8292 71.91L65.6992 71.05C67.3392 71.05 69.6092 71.03 71.5792 70.74L71.6592 71.5C69.6392 71.89 67.4392 71.91 65.8292 71.91ZM79.0345 69.37H80.0745V72.02H79.0345V69.37ZM82.3845 69.37H83.4345V72.02H82.3845V69.37ZM77.1045 71.85H85.3845V72.71H77.1045V71.85ZM81.2245 65.21C83.1745 65.21 84.5845 66.15 84.5845 67.61C84.5845 69.06 83.1745 70 81.2245 70C79.2745 70 77.8645 69.06 77.8645 67.61C77.8645 66.15 79.2745 65.21 81.2245 65.21ZM81.2245 66.03C79.8445 66.03 78.8845 66.64 78.8845 67.61C78.8845 68.57 79.8445 69.18 81.2245 69.18C82.6045 69.18 83.5645 68.57 83.5645 67.61C83.5645 66.64 82.6045 66.03 81.2245 66.03ZM86.3038 71.83H94.5838V72.69H86.3038V71.83ZM89.8738 69.7H90.9138V72.09H89.8738V69.7ZM89.8438 65.25H90.7538V65.94C90.7538 67.89 89.0838 69.48 87.0038 69.89L86.5638 69.02C88.3838 68.71 89.8438 67.34 89.8438 65.94V65.25ZM90.0338 65.25H90.9538V65.94C90.9538 67.36 92.4138 68.71 94.2338 69.02L93.7938 69.89C91.7038 69.48 90.0338 67.9 90.0338 65.94V65.25Z" fill="#F4C200"/>
<path d="M105.16 69.85H105.99V72.1H105.16V69.85ZM105.58 65.33C107.49 65.33 108.86 66.26 108.86 67.7C108.86 69.14 107.49 70.07 105.58 70.07C103.67 70.07 102.29 69.14 102.29 67.7C102.29 66.26 103.67 65.33 105.58 65.33ZM105.58 65.99C104.14 65.99 103.09 66.67 103.09 67.7C103.09 68.73 104.14 69.41 105.58 69.41C107.01 69.41 108.06 68.73 108.06 67.7C108.06 66.67 107.01 65.99 105.58 65.99ZM101.5 71.94H109.69V72.63H101.5V71.94ZM111.799 66.89H117.929V67.57H111.799V66.89ZM110.689 68.44H118.889V69.12H110.689V68.44ZM111.799 64.87H112.609V67.2H111.799V64.87ZM111.709 69.93H117.849V72.05H112.549V73.22H111.729V71.43H117.019V70.57H111.709V69.93ZM111.729 73.01H118.149V73.66H111.729V73.01ZM122.515 73V72.24H124.145V66.78H122.835V66.19C123.495 66.08 123.965 65.91 124.355 65.67H125.055V72.24H126.535V73H122.515ZM130.572 73V68.01C130.572 67.64 130.602 67.05 130.632 66.67H130.582C130.402 67.03 130.202 67.4 130.002 67.76L128.332 70.26H132.412V70.98H127.372V70.38L130.422 65.67H131.432V73H130.572ZM134.109 69.1C133.749 69.1 133.459 68.82 133.459 68.41C133.459 67.99 133.749 67.71 134.109 67.71C134.479 67.71 134.779 67.99 134.779 68.41C134.779 68.82 134.479 69.1 134.109 69.1ZM134.109 73.14C133.749 73.14 133.459 72.85 133.459 72.44C133.459 72.02 133.749 71.74 134.109 71.74C134.479 71.74 134.779 72.02 134.779 72.44C134.779 72.85 134.479 73.14 134.109 73.14ZM138.122 73.14C136.982 73.14 136.282 72.66 135.782 72.16L136.242 71.56C136.652 71.99 137.192 72.38 138.032 72.38C138.902 72.38 139.592 71.71 139.592 70.65C139.592 69.6 138.992 68.97 138.082 68.97C137.592 68.97 137.282 69.13 136.862 69.41L136.372 69.1L136.602 65.67H140.172V66.45H137.402L137.212 68.57C137.542 68.39 137.872 68.28 138.312 68.28C139.532 68.28 140.522 69 140.522 70.62C140.522 72.22 139.352 73.14 138.122 73.14ZM143.029 73C143.159 70.23 143.659 68.45 145.099 66.45H141.549V65.67H146.129V66.22C144.409 68.43 144.099 70.14 143.979 73H143.029Z" fill="#888888"/>
<path d="M105.16 69.85H105.99V72.1H105.16V69.85ZM105.58 65.33C107.49 65.33 108.86 66.26 108.86 67.7C108.86 69.14 107.49 70.07 105.58 70.07C103.67 70.07 102.29 69.14 102.29 67.7C102.29 66.26 103.67 65.33 105.58 65.33ZM105.58 65.99C104.14 65.99 103.09 66.67 103.09 67.7C103.09 68.73 104.14 69.41 105.58 69.41C107.01 69.41 108.06 68.73 108.06 67.7C108.06 66.67 107.01 65.99 105.58 65.99ZM101.5 71.94H109.69V72.63H101.5V71.94ZM111.799 66.89H117.929V67.57H111.799V66.89ZM110.689 68.44H118.889V69.12H110.689V68.44ZM111.799 64.87H112.609V67.2H111.799V64.87ZM111.709 69.93H117.849V72.05H112.549V73.22H111.729V71.43H117.019V70.57H111.709V69.93ZM111.729 73.01H118.149V73.66H111.729V73.01ZM122.515 73V72.24H124.145V66.78H122.835V66.19C123.495 66.08 123.965 65.91 124.355 65.67H125.055V72.24H126.535V73H122.515ZM130.572 73V68.01C130.572 67.64 130.602 67.05 130.632 66.67H130.582C130.402 67.03 130.202 67.4 130.002 67.76L128.332 70.26H132.412V70.98H127.372V70.38L130.422 65.67H131.432V73H130.572ZM134.109 69.1C133.749 69.1 133.459 68.82 133.459 68.41C133.459 67.99 133.749 67.71 134.109 67.71C134.479 67.71 134.779 67.99 134.779 68.41C134.779 68.82 134.479 69.1 134.109 69.1ZM134.109 73.14C133.749 73.14 133.459 72.85 133.459 72.44C133.459 72.02 133.749 71.74 134.109 71.74C134.479 71.74 134.779 72.02 134.779 72.44C134.779 72.85 134.479 73.14 134.109 73.14ZM138.122 73.14C136.982 73.14 136.282 72.66 135.782 72.16L136.242 71.56C136.652 71.99 137.192 72.38 138.032 72.38C138.902 72.38 139.592 71.71 139.592 70.65C139.592 69.6 138.992 68.97 138.082 68.97C137.592 68.97 137.282 69.13 136.862 69.41L136.372 69.1L136.602 65.67H140.172V66.45H137.402L137.212 68.57C137.542 68.39 137.872 68.28 138.312 68.28C139.532 68.28 140.522 69 140.522 70.62C140.522 72.22 139.352 73.14 138.122 73.14ZM143.029 73C143.159 70.23 143.659 68.45 145.099 66.45H141.549V65.67H146.129V66.22C144.409 68.43 144.099 70.14 143.979 73H143.029Z" fill="black" fill-opacity="0.2"/>
<path d="M60.57 81.75H63.3V82.44H60.57V81.75ZM60.57 84.61H63.3V85.3H60.57V84.61ZM58.91 80.43C60.22 80.43 61.16 81.66 61.16 83.58C61.16 85.51 60.22 86.74 58.91 86.74C57.59 86.74 56.66 85.51 56.66 83.58C56.66 81.66 57.59 80.43 58.91 80.43ZM58.91 81.18C58.04 81.18 57.44 82.12 57.44 83.58C57.44 85.05 58.04 86.01 58.91 86.01C59.78 86.01 60.38 85.05 60.38 83.58C60.38 82.12 59.78 81.18 58.91 81.18ZM63.12 79.73H63.94V88.79H63.12V79.73ZM72.2792 79.74H73.1092V88.78H72.2792V79.74ZM69.6292 80.71H70.4492C70.4492 83.33 69.2692 85.62 66.2492 87.1L65.8092 86.43C68.4192 85.17 69.6292 83.25 69.6292 80.85V80.71ZM66.2192 80.71H69.9892V81.39H66.2192V80.71ZM78.1648 83.96H84.3748V84.64H78.1648V83.96ZM77.1348 86.95H85.3248V87.65H77.1348V86.95ZM80.7948 84.25H81.6248V87.23H80.7948V84.25ZM78.1648 80.46H84.2848V81.14H78.9948V84.26H78.1648V80.46ZM86.334 86.98H94.524V87.67H86.334V86.98ZM89.994 85.04H90.824V87.27H89.994V85.04ZM87.324 80.41H93.514V83.15H88.174V84.96H87.354V82.48H92.694V81.08H87.324V80.41ZM87.354 84.61H93.724V85.29H87.354V84.61ZM101.643 79.73H102.483V88.78H101.643V79.73ZM102.253 83.4H103.923V84.09H102.253V83.4ZM99.3332 80.71H100.143C100.143 83.28 98.9632 85.6 96.0432 87.07L95.5832 86.43C98.0832 85.16 99.3332 83.23 99.3332 80.84V80.71ZM96.0032 80.71H99.7632V81.39H96.0032V80.71ZM107.369 80.73H111.459V81.4H107.369V80.73ZM108.779 83.31H109.599V86.37H108.779V83.31ZM111.119 80.73H111.929V81.21C111.929 81.95 111.929 83.13 111.669 84.81L110.849 84.73C111.119 83.1 111.119 81.94 111.119 81.21V80.73ZM113.069 79.74H113.889V88.78H113.069V79.74ZM113.669 83.52H115.339V84.22H113.669V83.52ZM106.969 86.81L106.869 86.11C108.509 86.11 110.689 86.08 112.519 85.85L112.559 86.46C110.689 86.76 108.569 86.8 106.969 86.81ZM117.198 83.96H123.408V84.64H117.198V83.96ZM116.168 86.95H124.358V87.65H116.168V86.95ZM119.828 84.25H120.658V87.23H119.828V84.25ZM117.198 80.46H123.318V81.14H118.028V84.26H117.198V80.46ZM131.487 79.74H132.317V88.78H131.487V79.74ZM132.117 83.45H133.797V84.15H132.117V83.45ZM125.317 81.18H130.647V81.86H125.317V81.18ZM128.017 82.61C129.297 82.61 130.217 83.47 130.217 84.69C130.217 85.91 129.297 86.77 128.017 86.77C126.747 86.77 125.817 85.91 125.817 84.69C125.817 83.47 126.747 82.61 128.017 82.61ZM128.017 83.3C127.197 83.3 126.607 83.87 126.607 84.69C126.607 85.5 127.197 86.08 128.017 86.08C128.837 86.08 129.427 85.5 129.427 84.69C129.427 83.87 128.837 83.3 128.017 83.3ZM127.587 79.85H128.417V81.49H127.587V79.85ZM141.446 79.74H142.246V88.78H141.446V79.74ZM137.526 83.43H139.806V84.1H137.526V83.43ZM139.566 79.97H140.346V88.32H139.566V79.97ZM137.636 80.88H138.436C138.436 83.25 137.486 85.38 135.046 86.83L134.556 86.24C136.686 84.96 137.636 83.16 137.636 81.03V80.88ZM134.956 80.88H137.946V81.56H134.956V80.88ZM146.112 80.71H151.142V81.39H146.112V80.71ZM145.982 86.55L145.882 85.84C147.512 85.84 149.702 85.82 151.562 85.59L151.612 86.21C149.722 86.52 147.572 86.55 145.982 86.55ZM147.082 81.22H147.892V86.03H147.082V81.22ZM149.362 81.22H150.172V86.03H149.362V81.22ZM152.112 79.74H152.952V88.78H152.112V79.74ZM152.752 83.35H154.432V84.05H152.752V83.35ZM156.251 87.9H162.461V88.58H156.251V87.9ZM156.251 85.99H157.081V88.14H156.251V85.99ZM155.191 84.59H163.391V85.27H155.191V84.59ZM158.861 83.07H159.681V84.84H158.861V83.07ZM158.851 79.97H159.571V80.38C159.571 82.06 157.871 83.3 156.051 83.65L155.721 82.99C157.331 82.73 158.851 81.64 158.851 80.38V79.97ZM158.981 79.97H159.691V80.38C159.691 81.64 161.231 82.73 162.821 82.99L162.491 83.65C160.691 83.29 158.981 82.06 158.981 80.38V79.97ZM165.11 83.63H169.74V84.31H165.11V83.63ZM166.96 84.17H167.8V86.25H166.96V84.17ZM165.11 80.59H169.69V81.27H165.94V83.87H165.11V80.59ZM170.93 79.73H171.76V88.79H170.93V79.73ZM164.56 86.83L164.44 86.14C166.21 86.13 168.43 86.11 170.34 85.88L170.41 86.5C168.43 86.8 166.27 86.84 164.56 86.83ZM176.01 80.43C177.32 80.43 178.26 81.66 178.26 83.58C178.26 85.51 177.32 86.74 176.01 86.74C174.69 86.74 173.76 85.51 173.76 83.58C173.76 81.66 174.69 80.43 176.01 80.43ZM176.01 81.18C175.14 81.18 174.55 82.12 174.55 83.58C174.55 85.05 175.14 86.01 176.01 86.01C176.88 86.01 177.47 85.05 177.47 83.58C177.47 82.12 176.88 81.18 176.01 81.18ZM180.22 79.73H181.04V88.79H180.22V79.73ZM177.99 83.18H180.58V83.86H177.99V83.18ZM185.049 85.3H185.689V85.79C185.689 86.97 184.949 88.16 183.649 88.66L183.229 88.04C184.369 87.63 185.049 86.66 185.049 85.79V85.3ZM185.229 85.3H185.849V85.79C185.849 86.7 186.389 87.67 187.469 88.11L187.119 88.74C185.819 88.23 185.229 86.99 185.229 85.79V85.3ZM188.389 85.3H189.009V85.79C189.009 86.85 188.409 88.19 187.119 88.74L186.769 88.11C187.839 87.62 188.389 86.57 188.389 85.79V85.3ZM188.559 85.3H189.199V85.79C189.199 86.72 189.869 87.65 191.019 88.04L190.599 88.66C189.279 88.18 188.559 87.04 188.559 85.79V85.3ZM189.369 79.75H190.209V84.91H189.369V79.75ZM185.359 80.27C186.729 80.27 187.709 81.13 187.709 82.38C187.709 83.63 186.729 84.48 185.359 84.48C183.989 84.48 182.999 83.63 182.999 82.38C182.999 81.13 183.989 80.27 185.359 80.27ZM185.359 80.96C184.459 80.96 183.809 81.54 183.809 82.38C183.809 83.22 184.459 83.79 185.359 83.79C186.259 83.79 186.909 83.22 186.909 82.38C186.909 81.54 186.259 80.96 185.359 80.96ZM194.408 80.43C195.718 80.43 196.658 81.66 196.658 83.58C196.658 85.51 195.718 86.74 194.408 86.74C193.088 86.74 192.158 85.51 192.158 83.58C192.158 81.66 193.088 80.43 194.408 80.43ZM194.408 81.18C193.538 81.18 192.948 82.12 192.948 83.58C192.948 85.05 193.538 86.01 194.408 86.01C195.278 86.01 195.868 85.05 195.868 83.58C195.868 82.12 195.278 81.18 194.408 81.18ZM198.618 79.73H199.438V88.79H198.618V79.73ZM196.388 83.18H198.978V83.86H196.388V83.18ZM205.707 82.8H208.227V83.48H205.707V82.8ZM203.527 80.52H204.207V82.13C204.207 84.16 203.137 86.1 201.707 86.87L201.177 86.21C202.507 85.55 203.527 83.81 203.527 82.13V80.52ZM203.687 80.52H204.357V82.13C204.357 83.78 205.377 85.42 206.687 86.04L206.197 86.71C204.737 85.97 203.687 84.11 203.687 82.13V80.52ZM207.817 79.73H208.637V88.79H207.817V79.73ZM214.833 81.89H215.483V82.66C215.483 84.57 214.443 86.33 213.013 87.04L212.543 86.4C213.873 85.76 214.833 84.22 214.833 82.66V81.89ZM214.993 81.89H215.643V82.66C215.643 84.12 216.553 85.59 217.843 86.23L217.383 86.87C215.973 86.17 214.993 84.46 214.993 82.66V81.89ZM212.793 81.31H217.643V81.98H212.793V81.31ZM214.823 79.9H215.643V81.68H214.823V79.9ZM218.743 79.74H219.583V88.78H218.743V79.74ZM219.383 83.45H221.063V84.14H219.383V83.45ZM227.942 79.73H228.782V88.78H227.942V79.73ZM228.552 83.4H230.222V84.09H228.552V83.4ZM225.632 80.71H226.442C226.442 83.28 225.262 85.6 222.342 87.07L221.882 86.43C224.382 85.16 225.632 83.23 225.632 80.84V80.71ZM222.302 80.71H226.062V81.39H222.302V80.71ZM234.308 80.11H240.388V83.16H234.308V80.11ZM239.568 80.78H235.118V82.49H239.568V80.78ZM233.258 84.22H241.428V84.89H233.258V84.22ZM236.938 82.95H237.758V84.51H236.938V82.95ZM236.928 85.46H237.638V85.74C237.638 87.36 236.058 88.42 234.208 88.73L233.888 88.08C235.538 87.84 236.928 86.94 236.928 85.74V85.46ZM237.058 85.46H237.768V85.74C237.768 86.94 239.148 87.84 240.798 88.08L240.478 88.73C238.628 88.42 237.058 87.36 237.058 85.74V85.46ZM251.073 79.74H251.893V88.78H251.073V79.74ZM251.423 83.27H253.093V83.96H251.423V83.27ZM244.863 80.58H245.573V82.9H246.673V80.58H247.363V86.59H244.863V80.58ZM245.573 83.56V85.91H246.673V83.56H245.573ZM247.843 80.58H248.543V82.9H249.613V80.58H250.313V86.59H247.843V80.58ZM248.543 83.56V85.91H249.613V83.56H248.543ZM260.512 79.74H261.332V88.78H260.512V79.74ZM256.192 81.03H256.852V82.38C256.852 84.35 255.742 86.28 254.382 87.03L253.832 86.4C255.122 85.75 256.192 84 256.192 82.38V81.03ZM256.362 81.03H257.022V82.38C257.022 83.81 258.072 85.51 259.352 86.17L258.872 86.82C257.482 86.09 256.362 84.16 256.362 82.38V81.03ZM254.162 80.66H259.042V81.35H254.162V80.66ZM258.702 82.28H261.042V82.97H258.702V82.28ZM258.702 84.21H261.042V84.91H258.702V84.21ZM269.822 83.34H271.492V84.04H269.822V83.34ZM269.212 79.73H270.052V88.78H269.212V79.73ZM263.452 80.62H264.282V86.22H263.452V80.62ZM263.452 85.79H264.172C265.512 85.79 266.882 85.7 268.372 85.39L268.472 86.08C266.932 86.4 265.542 86.49 264.172 86.49H263.452V85.79ZM276.381 79.87C278.341 79.87 279.561 80.48 279.561 81.53C279.561 82.58 278.341 83.19 276.381 83.19C274.411 83.19 273.201 82.58 273.201 81.53C273.201 80.48 274.411 79.87 276.381 79.87ZM276.381 80.51C274.931 80.51 274.051 80.88 274.051 81.53C274.051 82.17 274.931 82.55 276.381 82.55C277.821 82.55 278.711 82.17 278.711 81.53C278.711 80.88 277.821 80.51 276.381 80.51ZM273.331 85.23H274.151V86.22H278.601V85.23H279.421V88.66H273.331V85.23ZM274.151 86.86V87.99H278.601V86.86H274.151ZM272.291 84.01H280.461V84.69H272.291V84.01ZM275.961 82.93H276.781V84.34H275.961V82.93ZM288.07 79.74H288.9V88.78H288.07V79.74ZM282.07 80.62H282.89V86.22H282.07V80.62ZM282.07 85.73H282.81C284.18 85.73 285.61 85.63 287.14 85.31L287.24 86.02C285.67 86.34 284.24 86.45 282.81 86.45H282.07V85.73ZM296.809 79.73H297.649V88.79H296.809V79.73ZM297.449 83.3H299.129V84H297.449V83.3ZM291.079 85.84H291.789C293.459 85.84 294.629 85.78 295.979 85.53L296.069 86.23C294.679 86.49 293.489 86.54 291.789 86.54H291.079V85.84ZM291.079 80.61H295.279V81.29H291.899V86.15H291.079V80.61ZM300.778 88.14C300.418 88.14 300.128 87.85 300.128 87.44C300.128 87.02 300.418 86.74 300.778 86.74C301.148 86.74 301.448 87.02 301.448 87.44C301.448 87.85 301.148 88.14 300.778 88.14ZM57.38 94.7H63.2V95.37H57.38V94.7ZM56.5 100.77H64.67V101.46H56.5V100.77ZM62.76 94.7H63.57V95.6C63.57 96.76 63.57 98.05 63.23 100L62.4 99.92C62.76 98.07 62.76 96.72 62.76 95.6V94.7ZM72.4792 95.09H74.0392V95.79H72.4792V95.09ZM72.4792 97.02H74.0392V97.71H72.4792V97.02ZM71.8892 93.74H72.7092V99.12H71.8892V93.74ZM69.8192 99.24C71.6292 99.24 72.7992 99.92 72.7992 101.01C72.7992 102.1 71.6292 102.77 69.8192 102.77C68.0092 102.77 66.8392 102.1 66.8392 101.01C66.8392 99.92 68.0092 99.24 69.8192 99.24ZM69.8192 99.91C68.5092 99.91 67.6592 100.33 67.6592 101.01C67.6592 101.69 68.5092 102.11 69.8192 102.11C71.1392 102.11 71.9892 101.69 71.9892 101.01C71.9892 100.33 71.1392 99.91 69.8192 99.91ZM66.1292 94.29H66.9592V97.92H66.1292V94.29ZM66.1292 97.61H66.8392C68.1392 97.61 69.4892 97.52 70.9692 97.23L71.0692 97.9C69.5392 98.22 68.1892 98.31 66.8392 98.31H66.1292V97.61ZM79.5348 94.73H80.2248V95.65C80.2248 97.31 79.2048 98.7 77.6848 99.25L77.2548 98.59C78.6148 98.11 79.5348 96.94 79.5348 95.65V94.73ZM79.6948 94.73H80.3848V95.65C80.3848 96.87 81.3248 97.97 82.6648 98.42L82.2348 99.07C80.7348 98.56 79.6948 97.24 79.6948 95.65V94.73ZM77.4748 94.49H82.4248V95.16H77.4748V94.49ZM83.7048 93.75H84.5448V100.36H83.7048V93.75ZM78.7348 101.9H84.8148V102.58H78.7348V101.9ZM78.7348 99.74H79.5548V102.2H78.7348V99.74ZM92.904 93.74H93.744V98.59H92.904V93.74ZM87.914 99.04H88.734V100.14H92.924V99.04H93.744V102.66H87.914V99.04ZM88.734 100.8V101.99H92.924V100.8H88.734ZM88.894 94.17C90.264 94.17 91.244 95.02 91.244 96.25C91.244 97.49 90.264 98.34 88.894 98.34C87.524 98.34 86.534 97.49 86.534 96.25C86.534 95.02 87.524 94.17 88.894 94.17ZM88.894 94.86C87.994 94.86 87.344 95.43 87.344 96.25C87.344 97.07 87.994 97.64 88.894 97.64C89.794 97.64 90.444 97.07 90.444 96.25C90.444 95.43 89.794 94.86 88.894 94.86ZM102.353 93.75H103.143V99.34H102.353V93.75ZM100.883 96.22H102.593V96.9H100.883V96.22ZM100.433 93.88H101.223V99.21H100.433V93.88ZM95.4832 94.77H100.063V95.43H95.4832V94.77ZM97.7832 95.88C98.9132 95.88 99.7032 96.49 99.7032 97.43C99.7032 98.37 98.9132 98.98 97.7832 98.98C96.6432 98.98 95.8532 98.37 95.8532 97.43C95.8532 96.49 96.6432 95.88 97.7832 95.88ZM97.7832 96.51C97.0732 96.51 96.5932 96.87 96.5932 97.43C96.5932 97.99 97.0732 98.36 97.7832 98.36C98.4832 98.36 98.9632 97.99 98.9632 97.43C98.9632 96.87 98.4832 96.51 97.7832 96.51ZM97.3732 93.78H98.1832V95.16H97.3732V93.78ZM97.9132 99.61H98.5532V99.92C98.5532 101.06 97.8032 102.2 96.4932 102.67L96.1032 102.05C97.2332 101.67 97.9132 100.74 97.9132 99.92V99.61ZM98.1032 99.61H98.7132V99.92C98.7132 100.79 99.2432 101.71 100.323 102.12L99.9732 102.75C98.6832 102.27 98.1032 101.07 98.1032 99.92V99.61ZM101.233 99.61H101.843V99.92C101.843 100.94 101.253 102.23 99.9732 102.75L99.6332 102.12C100.683 101.66 101.233 100.67 101.233 99.92V99.61ZM101.403 99.61H102.043V99.92C102.043 100.8 102.723 101.69 103.863 102.05L103.463 102.67C102.143 102.22 101.403 101.12 101.403 99.92V99.61ZM110.842 93.73H111.682V102.79H110.842V93.73ZM111.482 97.3H113.162V98H111.482V97.3ZM105.112 99.84H105.822C107.492 99.84 108.662 99.78 110.012 99.53L110.102 100.23C108.712 100.49 107.522 100.54 105.822 100.54H105.112V99.84ZM105.112 94.61H109.312V95.29H105.932V100.15H105.112V94.61ZM120.042 93.73H120.882V102.78H120.042V93.73ZM120.652 97.4H122.322V98.09H120.652V97.4ZM117.732 94.71H118.542C118.542 97.28 117.362 99.6 114.442 101.07L113.982 100.43C116.482 99.16 117.732 97.23 117.732 94.84V94.71ZM114.402 94.71H118.162V95.39H114.402V94.71ZM129.437 95.75H132.167V96.44H129.437V95.75ZM129.437 98.61H132.167V99.3H129.437V98.61ZM127.777 94.43C129.087 94.43 130.027 95.66 130.027 97.58C130.027 99.51 129.087 100.74 127.777 100.74C126.457 100.74 125.527 99.51 125.527 97.58C125.527 95.66 126.457 94.43 127.777 94.43ZM127.777 95.18C126.907 95.18 126.307 96.12 126.307 97.58C126.307 99.05 126.907 100.01 127.777 100.01C128.647 100.01 129.247 99.05 129.247 97.58C129.247 96.12 128.647 95.18 127.777 95.18ZM131.987 93.73H132.807V102.79H131.987V93.73ZM141.166 93.73H141.996V102.79H141.166V93.73ZM139.446 97.21H141.366V97.89H139.446V97.21ZM134.896 99.93H135.586C137.186 99.93 138.316 99.88 139.646 99.64L139.726 100.33C138.366 100.57 137.216 100.63 135.586 100.63H134.896V99.93ZM134.876 94.58H138.916V97.75H135.716V100.14H134.896V97.07H138.096V95.26H134.876V94.58ZM150.262 96.29H152.862V96.97H150.262V96.29ZM152.602 93.75H153.432V100.44H152.602V93.75ZM147.622 101.9H153.652V102.58H147.622V101.9ZM147.622 99.79H148.452V102.25H147.622V99.79ZM146.442 94.34H147.262V95.94H149.712V94.34H150.522V98.9H146.442V94.34ZM147.262 96.59V98.22H149.712V96.59H147.262ZM163.808 93.74H164.628V102.78H163.808V93.74ZM164.158 97.27H165.828V97.96H164.158V97.27ZM157.597 94.58H158.308V96.9H159.408V94.58H160.098V100.59H157.597V94.58ZM158.308 97.56V99.91H159.408V97.56H158.308ZM160.578 94.58H161.278V96.9H162.348V94.58H163.048V100.59H160.578V94.58ZM161.278 97.56V99.91H162.348V97.56H161.278ZM173.247 93.74H174.067V102.78H173.247V93.74ZM168.927 95.03H169.587V96.38C169.587 98.35 168.477 100.28 167.117 101.03L166.567 100.4C167.857 99.75 168.927 98 168.927 96.38V95.03ZM169.097 95.03H169.757V96.38C169.757 97.81 170.807 99.51 172.087 100.17L171.607 100.82C170.217 100.09 169.097 98.16 169.097 96.38V95.03ZM166.897 94.66H171.777V95.35H166.897V94.66ZM171.437 96.28H173.777V96.97H171.437V96.28ZM171.437 98.21H173.777V98.91H171.437V98.21ZM180.346 96.8H182.866V97.48H180.346V96.8ZM178.166 94.52H178.846V96.13C178.846 98.16 177.776 100.1 176.346 100.87L175.816 100.21C177.146 99.55 178.166 97.81 178.166 96.13V94.52ZM178.326 94.52H178.996V96.13C178.996 97.78 180.016 99.42 181.326 100.04L180.836 100.71C179.376 99.97 178.326 98.11 178.326 96.13V94.52ZM182.456 93.73H183.276V102.79H182.456V93.73ZM193.451 93.74H194.281V98.35H193.451V93.74ZM193.921 95.77H195.621V96.46H193.921V95.77ZM187.641 94.33H191.791V98.02H187.641V94.33ZM190.981 95H188.451V97.36H190.981V95ZM188.211 101.86H188.641C189.181 101.86 190.051 101.81 190.821 101.55L190.961 102.22C190.091 102.5 189.261 102.54 188.641 102.54H188.211V101.86ZM188.211 99.18H189.021V102.04H188.211V99.18ZM190.631 99.27H195.171V99.89H190.631V99.27ZM192.911 100.22C193.891 100.22 194.581 100.72 194.581 101.49C194.581 102.28 193.891 102.77 192.911 102.77C191.921 102.77 191.231 102.28 191.231 101.49C191.231 100.72 191.921 100.22 192.911 100.22ZM192.911 100.81C192.351 100.81 191.971 101.08 191.971 101.49C191.971 101.91 192.351 102.18 192.911 102.18C193.451 102.18 193.841 101.91 193.841 101.49C193.841 101.08 193.451 100.81 192.911 100.81ZM192.501 98.48H193.311V99.71H192.501V98.48ZM203.031 93.73H203.861V102.79H203.031V93.73ZM199.091 94.43C200.431 94.43 201.391 95.66 201.391 97.58C201.391 99.51 200.431 100.74 199.091 100.74C197.761 100.74 196.801 99.51 196.801 97.58C196.801 95.66 197.761 94.43 199.091 94.43ZM199.091 95.18C198.211 95.18 197.591 96.12 197.591 97.58C197.591 99.05 198.211 100.01 199.091 100.01C199.981 100.01 200.591 99.05 200.591 97.58C200.591 96.12 199.981 95.18 199.091 95.18ZM205.67 97.51H213.84V98.19H205.67V97.51ZM206.75 96.11H212.87V96.78H206.75V96.11ZM206.75 94.03H212.77V94.71H207.57V96.65H206.75V94.03ZM206.65 98.97H212.79V101.1H207.49V102.24H206.67V100.48H211.97V99.62H206.65V98.97ZM206.67 102.02H213.06V102.68H206.67V102.02ZM223.705 93.74H224.545V100.47H223.705V93.74ZM220.955 94.44H221.835C221.835 96.78 220.165 98.55 217.605 99.39L217.245 98.72C219.475 97.99 220.955 96.57 220.955 94.79V94.44ZM217.695 94.44H221.465V95.13H217.695V94.44ZM221.415 95.6H223.835V96.28H221.415V95.6ZM221.325 97.63H223.805V98.31H221.325V97.63ZM218.825 101.9H224.765V102.58H218.825V101.9ZM218.825 99.82H219.655V102.32H218.825V99.82ZM232.875 93.75H233.715V100.35H232.875V93.75ZM227.905 101.9H233.985V102.58H227.905V101.9ZM227.905 99.67H228.725V102.13H227.905V99.67ZM228.865 94.37C230.215 94.37 231.215 95.29 231.215 96.6C231.215 97.9 230.215 98.83 228.865 98.83C227.515 98.83 226.505 97.9 226.505 96.6C226.505 95.29 227.515 94.37 228.865 94.37ZM228.865 95.09C227.985 95.09 227.315 95.71 227.315 96.6C227.315 97.48 227.985 98.1 228.865 98.1C229.745 98.1 230.415 97.48 230.415 96.6C230.415 95.71 229.745 95.09 228.865 95.09ZM244.31 93.75H245.15V100.37H244.31V93.75ZM239.34 101.9H245.42V102.58H239.34V101.9ZM239.34 99.76H240.16V102.22H239.34V99.76ZM240.09 94.24H240.78V95.16C240.78 96.92 239.78 98.46 238.26 99.08L237.83 98.41C239.19 97.88 240.09 96.56 240.09 95.16V94.24ZM240.24 94.24H240.92V95.16C240.92 96.52 241.83 97.75 243.18 98.24L242.74 98.91C241.24 98.33 240.24 96.88 240.24 95.16V94.24ZM250.499 96.97H252.229V97.66H250.499V96.97ZM248.809 94.59H249.459V96.31C249.459 98.2 248.669 100.03 247.349 100.84L246.829 100.21C248.069 99.48 248.809 97.86 248.809 96.31V94.59ZM248.969 94.59H249.609V96.28C249.609 97.73 250.289 99.27 251.479 99.99L250.999 100.64C249.699 99.84 248.969 98.04 248.969 96.28V94.59ZM253.819 93.74H254.619V102.78H253.819V93.74ZM251.989 93.93H252.769V102.33H251.989V93.93ZM260.775 94.52H261.465V95.21C261.465 96.8 260.425 98.14 258.905 98.66L258.485 98C259.845 97.56 260.775 96.44 260.775 95.21V94.52ZM260.935 94.52H261.625V95.21C261.625 96.38 262.575 97.43 263.905 97.85L263.495 98.5C261.995 98.01 260.935 96.74 260.935 95.21V94.52ZM258.715 94.33H263.665V95H258.715V94.33ZM264.945 93.74H265.785V98.63H264.945V93.74ZM259.955 99.08H260.775V100.15H264.965V99.08H265.785V102.66H259.955V99.08ZM260.775 100.82V101.98H264.965V100.82H260.775ZM274.144 93.74H274.974V102.78H274.144V93.74ZM268.144 94.62H268.964V100.22H268.144V94.62ZM268.144 99.73H268.884C270.254 99.73 271.684 99.63 273.214 99.31L273.314 100.02C271.744 100.34 270.314 100.45 268.884 100.45H268.144V99.73ZM282.883 93.73H283.723V102.79H282.883V93.73ZM283.523 97.3H285.203V98H283.523V97.3ZM277.153 99.84H277.863C279.533 99.84 280.703 99.78 282.053 99.53L282.143 100.23C280.753 100.49 279.563 100.54 277.863 100.54H277.153V99.84ZM277.153 94.61H281.353V95.29H277.973V100.15H277.153V94.61ZM62.93 107.74H63.75V112.51H62.93V107.74ZM63.17 109.71H64.86V110.4H63.17V109.71ZM56.73 108.17H57.44V109.42H58.45V108.17H59.16V112.04H56.73V108.17ZM57.44 110.07V111.37H58.45V110.07H57.44ZM59.71 108.17H60.42V109.42H61.43V108.17H62.13V112.04H59.71V108.17ZM60.42 110.07V111.37H61.43V110.07H60.42ZM57.84 112.91H63.75V115.05H58.68V116.37H57.87V114.43H62.93V113.57H57.84V112.91ZM57.87 116.02H64.08V116.68H57.87V116.02ZM72.2792 107.73H73.1092V116.79H72.2792V107.73ZM66.2192 113.92H66.9692C68.4792 113.92 69.8292 113.86 71.4292 113.6L71.5192 114.28C69.8792 114.55 68.5192 114.61 66.9692 114.61H66.2192V113.92ZM66.1992 108.58H70.3792V111.81H67.0492V114.18H66.2192V111.13H69.5392V109.26H66.1992V108.58ZM77.1348 114.94H85.3248V115.63H77.1348V114.94ZM80.7948 112.78H81.6248V115.14H80.7948V112.78ZM78.0948 108.38H78.9148V109.99H83.5248V108.38H84.3448V113H78.0948V108.38ZM78.9148 110.66V112.32H83.5248V110.66H78.9148ZM89.984 108.06H90.714V108.56C90.714 110.29 88.954 111.53 87.074 111.85L86.744 111.18C88.394 110.93 89.984 109.85 89.984 108.56V108.06ZM90.134 108.06H90.854V108.56C90.854 109.82 92.464 110.93 94.094 111.18L93.764 111.85C91.904 111.53 90.134 110.27 90.134 108.56V108.06ZM89.984 113.34H90.804V116.78H89.984V113.34ZM86.334 112.83H94.504V113.52H86.334V112.83ZM99.5832 113.44C101.503 113.44 102.733 114.07 102.733 115.11C102.733 116.14 101.503 116.76 99.5832 116.76C97.6532 116.76 96.4332 116.14 96.4332 115.11C96.4332 114.07 97.6532 113.44 99.5832 113.44ZM99.5832 114.09C98.1632 114.09 97.2532 114.48 97.2532 115.11C97.2532 115.73 98.1632 116.12 99.5832 116.12C101.003 116.12 101.903 115.73 101.903 115.11C101.903 114.48 101.003 114.09 99.5832 114.09ZM96.5032 108.19H102.323V108.87H96.5032V108.19ZM95.5332 111.95H103.693V112.62H95.5332V111.95ZM98.8832 110.21H99.7032V112.14H98.8832V110.21ZM101.843 108.19H102.653V108.96C102.653 109.69 102.653 110.42 102.413 111.36L101.593 111.26C101.843 110.33 101.843 109.67 101.843 108.96V108.19ZM106.942 108.52H107.622V110.14C107.622 112.14 106.542 114.09 105.112 114.85L104.602 114.19C105.912 113.53 106.942 111.79 106.942 110.14V108.52ZM107.092 108.52H107.762V110.14C107.762 111.73 108.772 113.38 110.052 114.02L109.542 114.68C108.142 113.93 107.092 112.08 107.092 110.14V108.52ZM110.842 107.74H111.682V116.78H110.842V107.74ZM111.482 111.4H113.162V112.1H111.482V111.4ZM120.042 107.73H120.882V116.78H120.042V107.73ZM120.652 111.4H122.322V112.09H120.652V111.4ZM117.732 108.71H118.542C118.542 111.28 117.362 113.6 114.442 115.07L113.982 114.43C116.482 113.16 117.732 111.23 117.732 108.84V108.71ZM114.402 108.71H118.162V109.39H114.402V108.71ZM131.947 107.74H132.787V112.42H131.947V107.74ZM126.887 112.86H132.787V115.04H127.727V116.4H126.917V114.42H131.957V113.52H126.887V112.86ZM126.917 116.02H133.117V116.68H126.917V116.02ZM125.767 108.35H130.617V109.01H125.767V108.35ZM125.607 112.12L125.517 111.43C127.127 111.43 129.287 111.39 131.047 111.17L131.097 111.78C129.297 112.05 127.197 112.11 125.607 112.12ZM126.657 108.65H127.457V111.73H126.657V108.65ZM128.917 108.65H129.727V111.73H128.917V108.65ZM136.566 112.39H137.386V115.1H136.566V112.39ZM139.906 112.39H140.736V115.1H139.906V112.39ZM134.566 114.94H142.756V115.63H134.566V114.94ZM138.646 108.31C140.556 108.31 141.926 109.22 141.926 110.64C141.926 112.05 140.556 112.96 138.646 112.96C136.726 112.96 135.356 112.05 135.356 110.64C135.356 109.22 136.726 108.31 138.646 108.31ZM138.646 108.97C137.196 108.97 136.156 109.63 136.156 110.64C136.156 111.64 137.196 112.3 138.646 112.3C140.096 112.3 141.126 111.64 141.126 110.64C141.126 109.63 140.096 108.97 138.646 108.97ZM143.746 109.28H148.226V109.96H143.746V109.28ZM145.986 110.56C147.116 110.56 147.936 111.41 147.936 112.63C147.936 113.84 147.116 114.69 145.986 114.69C144.866 114.69 144.046 113.84 144.046 112.63C144.046 111.41 144.866 110.56 145.986 110.56ZM145.986 111.27C145.296 111.27 144.796 111.83 144.796 112.63C144.796 113.43 145.296 113.99 145.986 113.99C146.686 113.99 147.196 113.43 147.196 112.63C147.196 111.83 146.686 111.27 145.986 111.27ZM150.616 107.74H151.416V116.78H150.616V107.74ZM149.176 111.54H150.886V112.23H149.176V111.54ZM148.686 107.94H149.466V116.34H148.686V107.94ZM145.586 108H146.406V109.7H145.586V108ZM152.965 114.94H161.155V115.63H152.965V114.94ZM156.625 112.78H157.455V115.14H156.625V112.78ZM153.925 108.38H154.745V109.99H159.355V108.38H160.175V113H153.925V108.38ZM154.745 110.66V112.32H159.355V110.66H154.745ZM168.734 107.74H169.574V112.59H168.734V107.74ZM163.744 113.04H164.564V114.14H168.754V113.04H169.574V116.66H163.744V113.04ZM164.564 114.8V115.99H168.754V114.8H164.564ZM164.724 108.17C166.094 108.17 167.074 109.02 167.074 110.25C167.074 111.49 166.094 112.34 164.724 112.34C163.354 112.34 162.364 111.49 162.364 110.25C162.364 109.02 163.354 108.17 164.724 108.17ZM164.724 108.86C163.824 108.86 163.174 109.43 163.174 110.25C163.174 111.07 163.824 111.64 164.724 111.64C165.624 111.64 166.274 111.07 166.274 110.25C166.274 109.43 165.624 108.86 164.724 108.86ZM177.933 107.74H178.763V116.78H177.933V107.74ZM171.933 108.62H172.753V114.22H171.933V108.62ZM171.933 113.73H172.673C174.043 113.73 175.473 113.63 177.003 113.31L177.103 114.02C175.533 114.34 174.103 114.45 172.673 114.45H171.933V113.73ZM186.673 107.73H187.513V116.79H186.673V107.73ZM187.313 111.3H188.993V112H187.313V111.3ZM180.943 113.84H181.653C183.323 113.84 184.493 113.78 185.843 113.53L185.933 114.23C184.543 114.49 183.353 114.54 181.653 114.54H180.943V113.84ZM180.943 108.61H185.143V109.29H181.763V114.15H180.943V108.61ZM190.642 116.14C190.282 116.14 189.992 115.85 189.992 115.44C189.992 115.02 190.282 114.74 190.642 114.74C191.012 114.74 191.312 115.02 191.312 115.44C191.312 115.85 191.012 116.14 190.642 116.14Z" fill="#333333"/>
<circle cx="30" cy="145" r="15" fill="#D43A18"/>
<path fill-rule="evenodd" clip-rule="evenodd" d="M34.801 139.886C35.2975 140.049 35.633 140.508 35.633 141.017L35.6665 145.443C35.6732 146.783 35.1834 148.084 34.2843 149.104C33.875 149.575 33.3449 149.974 32.6739 150.333L30.2919 151.608C30.2181 151.647 30.1376 151.667 30.0571 151.667C29.9766 151.667 29.8893 151.647 29.8155 151.608L27.4134 150.366C26.7357 150.013 26.2056 149.621 25.7896 149.156C24.877 148.15 24.3671 146.849 24.3604 145.509L24.3335 141.082C24.3268 140.572 24.6623 140.115 25.1521 139.945L29.5605 138.403C29.8222 138.31 30.1107 138.31 30.3791 138.403L34.801 139.886ZM31.6138 146.391C31.8084 146.202 31.8084 145.888 31.6138 145.698L30.7079 144.815L31.6138 143.933C31.8084 143.743 31.8084 143.436 31.6138 143.239C31.4192 143.05 31.0971 143.05 30.9025 143.239L29.9967 144.123L29.0908 143.239C28.8963 143.05 28.5809 143.05 28.3796 143.239C28.185 143.436 28.185 143.743 28.3796 143.933L29.2854 144.815L28.3796 145.698C28.185 145.888 28.185 146.202 28.3796 146.391C28.4802 146.489 28.6077 146.534 28.7352 146.534C28.8694 146.534 28.9969 146.489 29.0908 146.391L29.9967 145.509L30.9025 146.391C31.0032 146.489 31.1307 146.534 31.2581 146.534C31.3856 146.534 31.5198 146.489 31.6138 146.391Z" fill="white"/>
<path d="M57.092 134.676H61.868V135.684H57.092V134.676ZM58.616 137.088H59.852V139.74H58.616V137.088ZM61.364 134.676H62.612V135.324C62.612 136.02 62.612 137.004 62.336 138.252L61.112 138.144C61.364 136.92 61.364 136.02 61.364 135.324V134.676ZM63.908 134.028H65.18V140.796H63.908V134.028ZM64.64 136.884H66.632V137.928H64.64V136.884ZM56.564 140.184L56.432 139.164C58.412 139.164 61.04 139.14 63.236 138.852L63.32 139.752C61.064 140.136 58.52 140.184 56.564 140.184ZM61.568 140.928C63.86 140.928 65.276 141.684 65.276 142.944C65.276 144.228 63.86 144.972 61.568 144.972C59.276 144.972 57.86 144.228 57.86 142.944C57.86 141.684 59.276 140.928 61.568 140.928ZM61.568 141.9C60.032 141.9 59.132 142.272 59.132 142.944C59.132 143.628 60.032 143.988 61.568 143.988C63.104 143.988 63.992 143.628 63.992 142.944C63.992 142.272 63.104 141.9 61.568 141.9ZM71.8271 135.168H72.9191V135.576C72.9191 137.52 71.0591 139.02 68.5991 139.392L68.1191 138.408C70.2671 138.12 71.8271 136.872 71.8271 135.576V135.168ZM72.1751 135.168H73.2551V135.576C73.2551 136.872 74.8271 138.12 76.9631 138.408L76.4951 139.392C74.0231 139.02 72.1751 137.52 72.1751 135.576V135.168ZM71.8871 140.892H73.1351V144.996H71.8871V140.892ZM67.5911 140.184H77.5031V141.204H67.5911V140.184ZM68.4911 134.652H76.5671V135.66H68.4911V134.652ZM81.8654 134.676H86.6414V135.684H81.8654V134.676ZM83.3894 137.088H84.6254V139.74H83.3894V137.088ZM86.1374 134.676H87.3854V135.324C87.3854 136.02 87.3854 137.004 87.1094 138.252L85.8854 138.144C86.1374 136.92 86.1374 136.02 86.1374 135.324V134.676ZM88.6814 134.028H89.9534V140.796H88.6814V134.028ZM89.4134 136.884H91.4054V137.928H89.4134V136.884ZM81.3374 140.184L81.2054 139.164C83.1854 139.164 85.8134 139.14 88.0094 138.852L88.0934 139.752C85.8374 140.136 83.2934 140.184 81.3374 140.184ZM86.3414 140.928C88.6334 140.928 90.0494 141.684 90.0494 142.944C90.0494 144.228 88.6334 144.972 86.3414 144.972C84.0494 144.972 82.6334 144.228 82.6334 142.944C82.6334 141.684 84.0494 140.928 86.3414 140.928ZM86.3414 141.9C84.8054 141.9 83.9054 142.272 83.9054 142.944C83.9054 143.628 84.8054 143.988 86.3414 143.988C87.8774 143.988 88.7654 143.628 88.7654 142.944C88.7654 142.272 87.8774 141.9 86.3414 141.9ZM94.9445 134.7H95.9885V135.972C95.9885 138.132 94.8845 139.92 92.9285 140.628L92.2565 139.644C94.0085 139.044 94.9445 137.58 94.9445 135.972V134.7ZM95.1845 134.7H96.2045V135.996C96.2045 137.436 97.1525 138.828 98.8205 139.404L98.1845 140.388C96.2765 139.728 95.1845 137.988 95.1845 135.996V134.7ZM99.6605 134.028H100.921V142.092H99.6605V134.028ZM100.549 137.304H102.469V138.348H100.549V137.304ZM93.9965 143.76H101.365V144.78H93.9965V143.76ZM93.9965 141.324H95.2685V144.276H93.9965V141.324ZM104.592 134.712H111.456V135.708H104.592V134.712ZM103.404 139.392H113.316V140.424H103.404V139.392ZM107.688 140.1H108.948V145.008H107.688V140.1ZM110.832 134.712H112.068V135.672C112.068 136.836 112.068 138.132 111.648 140.028L110.412 139.872C110.832 138.072 110.832 136.788 110.832 135.672V134.712ZM119.742 135.912H120.762V136.356C120.762 138.228 119.646 139.812 117.69 140.412L117.09 139.428C118.782 138.936 119.742 137.7 119.742 136.356V135.912ZM119.97 135.912H121.002V136.356C121.002 137.616 121.974 138.768 123.666 139.236L123.09 140.22C121.122 139.668 119.97 138.156 119.97 136.356V135.912ZM117.438 135.228H123.306V136.224H117.438V135.228ZM119.742 133.98H121.002V135.648H119.742V133.98ZM123.018 137.004H125.298V138.024H123.018V137.004ZM124.962 134.028H126.222V140.484H124.962V134.028ZM119.022 141.012H126.222V144.864H119.022V141.012ZM124.986 142.008H120.258V143.856H124.986V142.008ZM135.473 134.028H136.733V141.96H135.473V134.028ZM136.361 137.16H138.281V138.204H136.361V137.16ZM128.633 139.068H129.509C131.825 139.068 133.049 139.008 134.453 138.708L134.585 139.716C133.145 140.028 131.873 140.088 129.509 140.088H128.633V139.068ZM128.633 134.94H133.505V135.96H129.881V139.608H128.633V134.94ZM129.797 143.76H137.177V144.78H129.797V143.76ZM129.797 141.144H131.057V144.252H129.797V141.144ZM143.536 139.524H144.784V141.444H143.536V139.524ZM139.204 139.092H149.116V140.1H139.204V139.092ZM144.148 141.084C146.5 141.084 147.928 141.78 147.928 143.04C147.928 144.276 146.5 144.984 144.148 144.984C141.784 144.984 140.368 144.276 140.368 143.04C140.368 141.78 141.784 141.084 144.148 141.084ZM144.148 142.044C142.54 142.044 141.64 142.38 141.64 143.04C141.64 143.676 142.54 144.024 144.148 144.024C145.756 144.024 146.656 143.676 146.656 143.04C146.656 142.38 145.756 142.044 144.148 142.044ZM143.32 134.988H144.436V135.288C144.436 137.004 142.66 138.264 140.14 138.54L139.708 137.544C141.856 137.34 143.32 136.356 143.32 135.288V134.988ZM143.896 134.988H145V135.288C145 136.368 146.464 137.34 148.624 137.544L148.18 138.54C145.672 138.264 143.896 137.004 143.896 135.288V134.988ZM140.116 134.508H148.228V135.516H140.116V134.508ZM153.303 134.652C154.971 134.652 156.219 135.732 156.219 137.28C156.219 138.804 154.971 139.884 153.303 139.884C151.635 139.884 150.399 138.804 150.399 137.28C150.399 135.732 151.635 134.652 153.303 134.652ZM153.303 135.708C152.331 135.708 151.623 136.332 151.623 137.28C151.623 138.228 152.331 138.828 153.303 138.828C154.275 138.828 154.995 138.228 154.995 137.28C154.995 136.332 154.275 135.708 153.303 135.708ZM157.551 134.028H158.811V140.484H157.551V134.028ZM158.463 136.644H160.359V137.688H158.463V136.644ZM155.283 140.772C157.527 140.772 158.931 141.564 158.931 142.884C158.931 144.204 157.527 144.984 155.283 144.984C153.027 144.984 151.623 144.204 151.623 142.884C151.623 141.564 153.027 140.772 155.283 140.772ZM155.283 141.78C153.759 141.78 152.871 142.164 152.871 142.884C152.871 143.604 153.759 143.988 155.283 143.988C156.807 143.988 157.683 143.604 157.683 142.884C157.683 142.164 156.807 141.78 155.283 141.78ZM161.294 142.68H171.23V143.712H161.294V142.68ZM165.614 140.448H166.862V143.1H165.614V140.448ZM162.458 134.796H170.042V138.264H163.73V140.304H162.482V137.268H168.794V135.804H162.458V134.796ZM162.482 139.788H170.294V140.808H162.482V139.788ZM172.801 144V142.86H174.745V136.716H173.149V135.84C173.989 135.696 174.565 135.48 175.081 135.168H176.125V142.86H177.853V144H172.801ZM182.045 144.168C180.305 144.168 179.189 142.62 179.189 139.548C179.189 136.5 180.305 135.012 182.045 135.012C183.773 135.012 184.901 136.5 184.901 139.548C184.901 142.62 183.773 144.168 182.045 144.168ZM182.045 143.064C182.945 143.064 183.569 142.104 183.569 139.548C183.569 137.028 182.945 136.092 182.045 136.092C181.145 136.092 180.509 137.028 180.509 139.548C180.509 142.104 181.145 143.064 182.045 143.064ZM189.153 144.168C187.473 144.168 186.105 142.752 186.105 139.752C186.105 136.368 187.689 135.012 189.441 135.012C190.425 135.012 191.145 135.42 191.649 135.96L190.893 136.8C190.569 136.416 190.029 136.14 189.513 136.14C188.337 136.14 187.389 137.052 187.389 139.752C187.389 142.032 188.061 143.1 189.141 143.1C189.909 143.1 190.509 142.404 190.509 141.264C190.509 140.124 189.993 139.488 189.057 139.488C188.529 139.488 187.893 139.8 187.365 140.604L187.305 139.596C187.821 138.9 188.637 138.492 189.297 138.492C190.785 138.492 191.793 139.392 191.793 141.264C191.793 143.016 190.581 144.168 189.153 144.168ZM198.037 137.04H201.037V138.06H198.037V137.04ZM200.689 134.04H201.949V142.14H200.689V134.04ZM194.809 143.76H202.201V144.78H194.809V143.76ZM194.809 141.348H196.069V144.312H194.809V141.348ZM193.357 134.76H194.605V136.572H197.185V134.76H198.421V140.34H193.357V134.76ZM194.605 137.544V139.332H197.185V137.544H194.605ZM211.68 134.028H212.94V139.584H211.68V134.028ZM208.284 134.508H209.664C209.664 137.4 207.852 139.08 204.516 139.812L204.072 138.792C206.976 138.204 208.284 136.896 208.284 135.192V134.508ZM204.636 134.508H209.148V135.516H204.636V134.508ZM205.752 140.076H212.94V142.884H207.024V144.336H205.776V141.96H211.68V141.06H205.752V140.076ZM205.776 143.904H213.264V144.888H205.776V143.904ZM220.77 144.168C219.09 144.168 217.722 142.752 217.722 139.752C217.722 136.368 219.306 135.012 221.058 135.012C222.042 135.012 222.762 135.42 223.266 135.96L222.51 136.8C222.186 136.416 221.646 136.14 221.13 136.14C219.954 136.14 219.006 137.052 219.006 139.752C219.006 142.032 219.678 143.1 220.758 143.1C221.526 143.1 222.126 142.404 222.126 141.264C222.126 140.124 221.61 139.488 220.674 139.488C220.146 139.488 219.51 139.8 218.982 140.604L218.922 139.596C219.438 138.9 220.254 138.492 220.914 138.492C222.402 138.492 223.41 139.392 223.41 141.264C223.41 143.016 222.198 144.168 220.77 144.168ZM227.146 144.168C225.754 144.168 224.878 143.604 224.242 142.98L224.914 142.08C225.406 142.584 226.054 143.028 226.978 143.028C227.974 143.028 228.718 142.32 228.718 141.144C228.718 139.98 228.046 139.308 227.038 139.308C226.486 139.308 226.15 139.464 225.634 139.8L224.95 139.368L225.214 135.168H229.702V136.344H226.426L226.222 138.6C226.594 138.408 226.954 138.3 227.434 138.3C228.91 138.3 230.122 139.164 230.122 141.108C230.122 143.052 228.682 144.168 227.146 144.168ZM231.337 141.132V140.1H234.505V141.132H231.337ZM238.267 144.168C236.887 144.168 235.987 143.616 235.387 142.944L236.071 142.056C236.587 142.584 237.235 143.028 238.159 143.028C239.143 143.028 239.827 142.476 239.827 141.564C239.827 140.58 239.203 139.956 237.223 139.956V138.924C238.951 138.924 239.527 138.276 239.527 137.388C239.527 136.608 239.023 136.116 238.171 136.116C237.499 136.116 236.923 136.44 236.419 136.944L235.687 136.068C236.395 135.444 237.211 135.012 238.23 135.012C239.815 135.012 240.931 135.828 240.931 137.28C240.931 138.3 240.343 139.008 239.407 139.356V139.416C240.427 139.68 241.23 140.436 241.23 141.636C241.23 143.232 239.899 144.168 238.267 144.168Z" fill="#333333"/>
<path d="M59.43 151.09C60.8 151.09 61.79 151.87 61.79 153C61.79 154.13 60.8 154.92 59.43 154.92C58.06 154.92 57.07 154.13 57.07 153C57.07 151.87 58.06 151.09 59.43 151.09ZM59.43 151.95C58.64 151.95 58.08 152.36 58.08 153C58.08 153.65 58.64 154.05 59.43 154.05C60.22 154.05 60.79 153.65 60.79 153C60.79 152.36 60.22 151.95 59.43 151.95ZM58.95 155.89H60V159.55H58.95V155.89ZM62.97 150.69H64.01V159.83H62.97V150.69ZM56.59 156.45L56.46 155.58C58.11 155.58 60.4 155.56 62.38 155.26L62.45 156.03C60.42 156.42 58.22 156.44 56.59 156.45ZM70.7992 152.74H72.5792V153.59H70.7992V152.74ZM70.7892 154.53H72.5592V155.37H70.7892V154.53ZM65.6692 151.54H70.7492V152.38H65.6692V151.54ZM68.2492 152.75C69.4892 152.75 70.3492 153.41 70.3492 154.4C70.3492 155.39 69.4892 156.04 68.2492 156.04C67.0192 156.04 66.1492 155.39 66.1492 154.4C66.1492 153.41 67.0192 152.75 68.2492 152.75ZM68.2492 153.53C67.5792 153.53 67.1292 153.86 67.1292 154.4C67.1292 154.94 67.5792 155.27 68.2492 155.27C68.9192 155.27 69.3792 154.94 69.3792 154.4C69.3792 153.86 68.9192 153.53 68.2492 153.53ZM67.7392 150.61H68.7792V152.09H67.7392V150.61ZM72.1792 150.69H73.2292V156.11H72.1792V150.69ZM67.2292 156.48H68.2592V157.3H72.1892V156.48H73.2292V159.72H67.2292V156.48ZM68.2592 158.09V158.9H72.1892V158.09H68.2592ZM79.0345 155.37H80.0745V158.02H79.0345V155.37ZM82.3845 155.37H83.4345V158.02H82.3845V155.37ZM77.1045 157.85H85.3845V158.71H77.1045V157.85ZM81.2245 151.21C83.1745 151.21 84.5845 152.15 84.5845 153.61C84.5845 155.06 83.1745 156 81.2245 156C79.2745 156 77.8645 155.06 77.8645 153.61C77.8645 152.15 79.2745 151.21 81.2245 151.21ZM81.2245 152.03C79.8445 152.03 78.8845 152.64 78.8845 153.61C78.8845 154.57 79.8445 155.18 81.2245 155.18C82.6045 155.18 83.5645 154.57 83.5645 153.61C83.5645 152.64 82.6045 152.03 81.2245 152.03ZM86.3038 157.83H94.5838V158.69H86.3038V157.83ZM89.8738 155.7H90.9138V158.09H89.8738V155.7ZM89.8438 151.25H90.7538V151.94C90.7538 153.89 89.0838 155.48 87.0038 155.89L86.5638 155.02C88.3838 154.71 89.8438 153.34 89.8438 151.94V151.25ZM90.0338 151.25H90.9538V151.94C90.9538 153.36 92.4138 154.71 94.2338 155.02L93.7938 155.89C91.7038 155.48 90.0338 153.9 90.0338 151.94V151.25Z" fill="#D43A18"/>
<path d="M105.16 155.85H105.99V158.1H105.16V155.85ZM105.58 151.33C107.49 151.33 108.86 152.26 108.86 153.7C108.86 155.14 107.49 156.07 105.58 156.07C103.67 156.07 102.29 155.14 102.29 153.7C102.29 152.26 103.67 151.33 105.58 151.33ZM105.58 151.99C104.14 151.99 103.09 152.67 103.09 153.7C103.09 154.73 104.14 155.41 105.58 155.41C107.01 155.41 108.06 154.73 108.06 153.7C108.06 152.67 107.01 151.99 105.58 151.99ZM101.5 157.94H109.69V158.63H101.5V157.94ZM111.799 152.89H117.929V153.57H111.799V152.89ZM110.689 154.44H118.889V155.12H110.689V154.44ZM111.799 150.87H112.609V153.2H111.799V150.87ZM111.709 155.93H117.849V158.05H112.549V159.22H111.729V157.43H117.019V156.57H111.709V155.93ZM111.729 159.01H118.149V159.66H111.729V159.01ZM124.415 159.14C123.015 159.14 122.125 157.87 122.125 155.31C122.125 152.77 123.015 151.54 124.415 151.54C125.795 151.54 126.685 152.77 126.685 155.31C126.685 157.87 125.795 159.14 124.415 159.14ZM124.415 158.4C125.245 158.4 125.805 157.47 125.805 155.31C125.805 153.18 125.245 152.27 124.415 152.27C123.575 152.27 123.005 153.18 123.005 155.31C123.005 157.47 123.575 158.4 124.415 158.4ZM128.062 159V158.24H129.692V152.78H128.382V152.19C129.042 152.08 129.512 151.91 129.902 151.67H130.602V158.24H132.082V159H128.062ZM134.109 155.1C133.749 155.1 133.459 154.82 133.459 154.41C133.459 153.99 133.749 153.71 134.109 153.71C134.479 153.71 134.779 153.99 134.779 154.41C134.779 154.82 134.479 155.1 134.109 155.1ZM134.109 159.14C133.749 159.14 133.459 158.85 133.459 158.44C133.459 158.02 133.749 157.74 134.109 157.74C134.479 157.74 134.779 158.02 134.779 158.44C134.779 158.85 134.479 159.14 134.109 159.14ZM136.392 159V158.24H138.022V152.78H136.712V152.19C137.372 152.08 137.842 151.91 138.232 151.67H138.932V158.24H140.412V159H136.392ZM141.939 159V158.24H143.569V152.78H142.259V152.19C142.919 152.08 143.389 151.91 143.779 151.67H144.479V158.24H145.959V159H141.939Z" fill="#888888"/>
<path d="M105.16 155.85H105.99V158.1H105.16V155.85ZM105.58 151.33C107.49 151.33 108.86 152.26 108.86 153.7C108.86 155.14 107.49 156.07 105.58 156.07C103.67 156.07 102.29 155.14 102.29 153.7C102.29 152.26 103.67 151.33 105.58 151.33ZM105.58 151.99C104.14 151.99 103.09 152.67 103.09 153.7C103.09 154.73 104.14 155.41 105.58 155.41C107.01 155.41 108.06 154.73 108.06 153.7C108.06 152.67 107.01 151.99 105.58 151.99ZM101.5 157.94H109.69V158.63H101.5V157.94ZM111.799 152.89H117.929V153.57H111.799V152.89ZM110.689 154.44H118.889V155.12H110.689V154.44ZM111.799 150.87H112.609V153.2H111.799V150.87ZM111.709 155.93H117.849V158.05H112.549V159.22H111.729V157.43H117.019V156.57H111.709V155.93ZM111.729 159.01H118.149V159.66H111.729V159.01ZM124.415 159.14C123.015 159.14 122.125 157.87 122.125 155.31C122.125 152.77 123.015 151.54 124.415 151.54C125.795 151.54 126.685 152.77 126.685 155.31C126.685 157.87 125.795 159.14 124.415 159.14ZM124.415 158.4C125.245 158.4 125.805 157.47 125.805 155.31C125.805 153.18 125.245 152.27 124.415 152.27C123.575 152.27 123.005 153.18 123.005 155.31C123.005 157.47 123.575 158.4 124.415 158.4ZM128.062 159V158.24H129.692V152.78H128.382V152.19C129.042 152.08 129.512 151.91 129.902 151.67H130.602V158.24H132.082V159H128.062ZM134.109 155.1C133.749 155.1 133.459 154.82 133.459 154.41C133.459 153.99 133.749 153.71 134.109 153.71C134.479 153.71 134.779 153.99 134.779 154.41C134.779 154.82 134.479 155.1 134.109 155.1ZM134.109 159.14C133.749 159.14 133.459 158.85 133.459 158.44C133.459 158.02 133.749 157.74 134.109 157.74C134.479 157.74 134.779 158.02 134.779 158.44C134.779 158.85 134.479 159.14 134.109 159.14ZM136.392 159V158.24H138.022V152.78H136.712V152.19C137.372 152.08 137.842 151.91 138.232 151.67H138.932V158.24H140.412V159H136.392ZM141.939 159V158.24H143.569V152.78H142.259V152.19C142.919 152.08 143.389 151.91 143.779 151.67H144.479V158.24H145.959V159H141.939Z" fill="black" fill-opacity="0.2"/>
<path d="M56.5 172.93H64.69V173.62H56.5V172.93ZM60.18 170.74H61V173.16H60.18V170.74ZM60.16 166.88H60.86V167.44C60.86 169.29 59.01 170.69 57.23 171.06L56.89 170.4C58.45 170.14 60.16 168.87 60.16 167.44V166.88ZM60.31 166.88H61.01V167.44C61.01 168.87 62.73 170.11 64.31 170.37L63.98 171.03C62.17 170.67 60.31 169.29 60.31 167.44V166.88ZM57.17 166.56H64V167.24H57.17V166.56ZM66.7392 166.21H72.5592V166.89H66.7392V166.21ZM65.6992 169.54H73.8892V170.22H65.6992V169.54ZM72.0192 166.21H72.8292V166.88C72.8292 167.65 72.8292 168.53 72.5292 169.78L71.7192 169.74C72.0192 168.5 72.0192 167.63 72.0192 166.88V166.21ZM66.6992 171.45H72.8592V174.66H66.6992V171.45ZM72.0492 172.11H67.5092V173.99H72.0492V172.11ZM81.9248 168.23H84.2048V168.91H81.9248V168.23ZM83.7348 165.75H84.5648V172.37H83.7348V165.75ZM78.7948 173.9H84.8148V174.58H78.7948V173.9ZM78.7948 171.79H79.6248V174.25H78.7948V171.79ZM79.4348 166.87H80.1148V167.6C80.1148 169.24 79.0948 170.66 77.5848 171.22L77.1548 170.56C78.5048 170.08 79.4348 168.88 79.4348 167.6V166.87ZM79.5948 166.87H80.2648V167.59C80.2648 168.76 81.1448 169.9 82.4548 170.36L82.0348 171.01C80.5648 170.48 79.5948 169.12 79.5948 167.59V166.87ZM77.4148 166.48H82.2448V167.15H77.4148V166.48ZM89.994 169.25H91.704V169.94H89.994V169.25ZM93.214 165.74H94.014V174.78H93.214V165.74ZM91.424 165.93H92.214V174.33H91.424V165.93ZM88.364 166.49C89.534 166.49 90.294 167.7 90.294 169.64C90.294 171.58 89.534 172.79 88.364 172.79C87.194 172.79 86.444 171.58 86.444 169.64C86.444 167.7 87.194 166.49 88.364 166.49ZM88.364 167.26C87.654 167.26 87.204 168.18 87.204 169.64C87.204 171.1 87.654 172.02 88.364 172.02C89.084 172.02 89.534 171.1 89.534 169.64C89.534 168.18 89.084 167.26 88.364 167.26ZM98.8195 168.77H105.01V169.45H98.8195V168.77ZM97.7695 170.81H105.96V171.49H97.7695V170.81ZM101.42 171.18H102.24V174.78H101.42V171.18ZM98.8195 166.19H99.6495V169.11H98.8195V166.19ZM113.079 165.73H113.919V174.78H113.079V165.73ZM113.689 169.4H115.359V170.09H113.689V169.4ZM110.769 166.71H111.579C111.579 169.28 110.399 171.6 107.479 173.07L107.019 172.43C109.519 171.16 110.769 169.23 110.769 166.84V166.71ZM107.439 166.71H111.199V167.39H107.439V166.71ZM122.474 167.75H125.204V168.44H122.474V167.75ZM122.474 170.61H125.204V171.3H122.474V170.61ZM120.814 166.43C122.124 166.43 123.064 167.66 123.064 169.58C123.064 171.51 122.124 172.74 120.814 172.74C119.494 172.74 118.564 171.51 118.564 169.58C118.564 167.66 119.494 166.43 120.814 166.43ZM120.814 167.18C119.944 167.18 119.344 168.12 119.344 169.58C119.344 171.05 119.944 172.01 120.814 172.01C121.684 172.01 122.284 171.05 122.284 169.58C122.284 168.12 121.684 167.18 120.814 167.18ZM125.024 165.73H125.844V174.79H125.024V165.73ZM134.184 165.74H135.014V174.78H134.184V165.74ZM131.534 166.71H132.354C132.354 169.33 131.174 171.62 128.154 173.1L127.714 172.43C130.324 171.17 131.534 169.25 131.534 166.85V166.71ZM128.124 166.71H131.894V167.39H128.124V166.71ZM141.313 168.8H143.833V169.48H141.313V168.8ZM139.133 166.52H139.813V168.13C139.813 170.16 138.743 172.1 137.313 172.87L136.783 172.21C138.113 171.55 139.133 169.81 139.133 168.13V166.52ZM139.293 166.52H139.963V168.13C139.963 169.78 140.983 171.42 142.293 172.04L141.803 172.71C140.343 171.97 139.293 170.11 139.293 168.13V166.52ZM143.423 165.73H144.243V174.79H143.423V165.73ZM148.238 170.25H156.408V170.91H148.238V170.25ZM151.908 168.69H152.728V170.51H151.908V168.69ZM149.138 171.79H155.408V174.85H154.578V172.47H149.138V171.79ZM149.268 168.49H155.468V169.17H149.268V168.49ZM149.268 166.1H155.388V166.78H150.098V168.84H149.268V166.1ZM159.648 166.52H160.328V168.14C160.328 170.14 159.248 172.09 157.818 172.85L157.308 172.19C158.618 171.53 159.648 169.79 159.648 168.14V166.52ZM159.798 166.52H160.468V168.14C160.468 169.73 161.478 171.38 162.758 172.02L162.248 172.68C160.848 171.93 159.798 170.08 159.798 168.14V166.52ZM163.548 165.74H164.388V174.78H163.548V165.74ZM164.188 169.4H165.868V170.1H164.188V169.4ZM172.817 165.75H173.647V172.53H172.817V165.75ZM173.387 168.71H174.987V169.41H173.387V168.71ZM166.657 166.84H171.997V167.51H166.657V166.84ZM169.327 168.01C170.607 168.01 171.487 168.68 171.487 169.7C171.487 170.71 170.607 171.38 169.327 171.38C168.037 171.38 167.157 170.71 167.157 169.7C167.157 168.68 168.037 168.01 169.327 168.01ZM169.327 168.66C168.507 168.66 167.947 169.07 167.947 169.7C167.947 170.32 168.507 170.73 169.327 170.73C170.137 170.73 170.697 170.32 170.697 169.7C170.697 169.07 170.137 168.66 169.327 168.66ZM168.907 165.74H169.737V167.19H168.907V165.74ZM168.017 173.9H174.057V174.58H168.017V173.9ZM168.017 171.99H168.847V174.19H168.017V171.99ZM179.586 169.16H181.286V169.85H179.586V169.16ZM176.166 171.93H176.746C178.136 171.93 178.966 171.9 179.966 171.7L180.046 172.38C179.016 172.58 178.156 172.61 176.746 172.61H176.166V171.93ZM176.166 166.83H179.516V167.5H176.956V172.16H176.166V166.83ZM176.716 169.27H179.106V169.93H176.716V169.27ZM182.706 165.74H183.506V174.78H182.706V165.74ZM180.886 165.95H181.676V174.32H180.886V165.95ZM190.931 170.01H191.751V171.4H190.931V170.01ZM187.261 169.55H195.431V170.22H187.261V169.55ZM188.321 166.04H194.371V168.79H188.321V166.04ZM193.561 166.7H189.141V168.13H193.561V166.7ZM188.251 171.1H194.391V173.13H189.091V174.23H188.271V172.53H193.571V171.74H188.251V171.1ZM188.271 174.03H194.661V174.68H188.271V174.03ZM203.071 165.73H203.901V174.79H203.071V165.73ZM201.291 167.8H203.291V168.48H201.291V167.8ZM196.801 171.99H197.471C198.871 171.99 200.021 171.95 201.401 171.73L201.481 172.42C200.061 172.64 198.901 172.69 197.471 172.69H196.801V171.99ZM196.781 166.55H200.731V169.79H197.621V172.15H196.801V169.11H199.911V167.24H196.781V166.55ZM201.231 170.27H203.231V170.95H201.231V170.27ZM210.18 168.8H212.7V169.48H210.18V168.8ZM208 166.52H208.68V168.13C208.68 170.16 207.61 172.1 206.18 172.87L205.65 172.21C206.98 171.55 208 169.81 208 168.13V166.52ZM208.16 166.52H208.83V168.13C208.83 169.78 209.85 171.42 211.16 172.04L210.67 172.71C209.21 171.97 208.16 170.11 208.16 168.13V166.52ZM212.29 165.73H213.11V174.79H212.29V165.73ZM219.495 167.03H220.165V168.5C220.165 170.41 219.015 172.33 217.575 173.04L217.095 172.38C218.405 171.76 219.495 170.06 219.495 168.5V167.03ZM219.655 167.03H220.325V168.5C220.325 170.03 221.415 171.59 222.745 172.16L222.275 172.82C220.815 172.14 219.655 170.38 219.655 168.5V167.03ZM217.395 166.66H222.445V167.36H217.395V166.66ZM223.665 165.74H224.495V174.78H223.665V165.74ZM227.345 166.21H233.165V166.89H227.345V166.21ZM226.305 169.54H234.495V170.22H226.305V169.54ZM232.625 166.21H233.435V166.88C233.435 167.65 233.435 168.53 233.135 169.78L232.325 169.74C232.625 168.5 232.625 167.63 232.625 166.88V166.21ZM227.305 171.45H233.465V174.66H227.305V171.45ZM232.655 172.11H228.115V173.99H232.655V172.11ZM237.73 170.13H245.9V170.81H237.73V170.13ZM241.81 171.55C243.75 171.55 244.91 172.13 244.91 173.16C244.91 174.2 243.75 174.78 241.81 174.78C239.87 174.78 238.71 174.2 238.71 173.16C238.71 172.13 239.87 171.55 241.81 171.55ZM241.81 172.2C240.4 172.2 239.55 172.55 239.55 173.16C239.55 173.79 240.4 174.13 241.81 174.13C243.23 174.13 244.07 173.79 244.07 173.16C244.07 172.55 243.23 172.2 241.81 172.2ZM241.82 165.96C243.77 165.96 245 166.61 245 167.69C245 168.76 243.77 169.41 241.82 169.41C239.86 169.41 238.64 168.76 238.64 167.69C238.64 166.61 239.86 165.96 241.82 165.96ZM241.82 166.62C240.38 166.62 239.49 167.02 239.49 167.69C239.49 168.36 240.38 168.75 241.82 168.75C243.25 168.75 244.15 168.36 244.15 167.69C244.15 167.02 243.25 166.62 241.82 166.62ZM247.999 170.91H248.819V172.1H253.239V170.91H254.069V174.66H247.999V170.91ZM248.819 172.76V173.99H253.239V172.76H248.819ZM247.979 166.15H253.799V166.83H247.979V166.15ZM246.939 169.42H255.129V170.11H246.939V169.42ZM253.259 166.15H254.069V166.81C254.069 167.55 254.069 168.4 253.789 169.61L252.959 169.62C253.259 168.41 253.259 167.55 253.259 166.81V166.15ZM262.709 165.74H263.539V170.42H262.709V165.74ZM257.699 170.88H263.549V173.05H258.529V174.29H257.719V172.43H262.729V171.53H257.699V170.88ZM257.719 174.02H263.849V174.68H257.719V174.02ZM258.489 166H259.179V166.69C259.179 168.36 258.139 169.78 256.609 170.34L256.199 169.68C257.559 169.2 258.489 168 258.489 166.69V166ZM258.639 166H259.319V166.69C259.319 167.94 260.269 169.07 261.609 169.51L261.199 170.16C259.679 169.64 258.639 168.31 258.639 166.69V166ZM274.144 165.74H274.974V170.42H274.144V165.74ZM269.134 170.88H274.984V173.05H269.964V174.29H269.154V172.43H274.164V171.53H269.134V170.88ZM269.154 174.02H275.284V174.68H269.154V174.02ZM269.924 166H270.614V166.69C270.614 168.36 269.574 169.78 268.044 170.34L267.634 169.68C268.994 169.2 269.924 168 269.924 166.69V166ZM270.074 166H270.754V166.69C270.754 167.94 271.704 169.07 273.044 169.51L272.634 170.16C271.114 169.64 270.074 168.31 270.074 166.69V166ZM283.373 165.73H284.203V174.79H283.373V165.73ZM281.593 167.8H283.593V168.48H281.593V167.8ZM277.103 171.99H277.773C279.173 171.99 280.323 171.95 281.703 171.73L281.783 172.42C280.363 172.64 279.203 172.69 277.773 172.69H277.103V171.99ZM277.083 166.55H281.033V169.79H277.923V172.15H277.103V169.11H280.213V167.24H277.083V166.55ZM281.533 170.27H283.533V170.95H281.533V170.27ZM292.153 165.72H292.983V170.8H292.153V165.72ZM292.753 167.98H294.323V168.68H292.753V167.98ZM289.653 166.32H290.543C290.543 168.6 288.953 170.25 286.293 170.98L285.973 170.31C288.303 169.67 289.653 168.35 289.653 166.69V166.32ZM286.383 166.32H290.133V166.99H286.383V166.32ZM288.143 171.15H288.773V171.79C288.773 172.99 288.043 174.19 286.753 174.69L286.333 174.07C287.463 173.66 288.143 172.67 288.143 171.79V171.15ZM288.333 171.15H288.943V171.79C288.943 172.71 289.473 173.7 290.563 174.15L290.203 174.77C288.903 174.25 288.333 173.01 288.333 171.79V171.15ZM291.473 171.15H292.093V171.79C292.093 172.86 291.503 174.21 290.203 174.77L289.853 174.15C290.943 173.65 291.473 172.58 291.473 171.79V171.15ZM291.643 171.15H292.283V171.79C292.283 172.74 292.943 173.68 294.083 174.07L293.673 174.69C292.363 174.21 291.643 173.05 291.643 171.79V171.15ZM296.202 171.16H297.022V172.21H301.442V171.16H302.272V174.66H296.202V171.16ZM297.022 172.85V173.99H301.442V172.85H297.022ZM295.162 169.86H303.332V170.53H295.162V169.86ZM298.832 165.84H299.542V166.24C299.542 167.81 297.792 168.94 295.932 169.22L295.632 168.57C297.262 168.35 298.832 167.38 298.832 166.24V165.84ZM298.962 165.84H299.672V166.24C299.672 167.36 301.262 168.35 302.872 168.57L302.562 169.22C300.722 168.94 298.962 167.79 298.962 166.24V165.84ZM63.07 179.74H63.9V188.78H63.07V179.74ZM57.07 180.62H57.89V186.22H57.07V180.62ZM57.07 185.73H57.81C59.18 185.73 60.61 185.63 62.14 185.31L62.24 186.02C60.67 186.34 59.24 186.45 57.81 186.45H57.07V185.73ZM71.8092 179.73H72.6492V188.79H71.8092V179.73ZM72.4492 183.3H74.1292V184H72.4492V183.3ZM66.0792 185.84H66.7892C68.4592 185.84 69.6292 185.78 70.9792 185.53L71.0692 186.23C69.6792 186.49 68.4892 186.54 66.7892 186.54H66.0792V185.84ZM66.0792 180.61H70.2792V181.29H66.8992V186.15H66.0792V180.61ZM75.7784 188.14C75.4184 188.14 75.1284 187.85 75.1284 187.44C75.1284 187.02 75.4184 186.74 75.7784 186.74C76.1484 186.74 76.4484 187.02 76.4484 187.44C76.4484 187.85 76.1484 188.14 75.7784 188.14ZM86.738 179.75H87.528V184.99H86.738V179.75ZM85.308 182H87.008V182.68H85.308V182ZM84.798 179.92H85.588V184.88H84.798V179.92ZM81.598 185.46H87.528V188.66H81.598V185.46ZM86.728 186.13H82.408V187.99H86.728V186.13ZM80.318 180.29H81.098V181.69H83.028V180.29H83.818V184.46H80.318V180.29ZM81.098 182.34V183.79H83.028V182.34H81.098ZM95.6772 179.73H96.5072V188.79H95.6772V179.73ZM91.7372 180.43C93.0772 180.43 94.0372 181.66 94.0372 183.58C94.0372 185.51 93.0772 186.74 91.7372 186.74C90.4072 186.74 89.4472 185.51 89.4472 183.58C89.4472 181.66 90.4072 180.43 91.7372 180.43ZM91.7372 181.18C90.8572 181.18 90.2372 182.12 90.2372 183.58C90.2372 185.05 90.8572 186.01 91.7372 186.01C92.6272 186.01 93.2372 185.05 93.2372 183.58C93.2372 182.12 92.6272 181.18 91.7372 181.18ZM102.963 180.43C104.273 180.43 105.213 181.66 105.213 183.58C105.213 185.51 104.273 186.74 102.963 186.74C101.643 186.74 100.713 185.51 100.713 183.58C100.713 181.66 101.643 180.43 102.963 180.43ZM102.963 181.18C102.093 181.18 101.503 182.12 101.503 183.58C101.503 185.05 102.093 186.01 102.963 186.01C103.833 186.01 104.423 185.05 104.423 183.58C104.423 182.12 103.833 181.18 102.963 181.18ZM107.173 179.73H107.993V188.79H107.173V179.73ZM104.943 183.18H107.533V183.86H104.943V183.18ZM116.322 179.74H117.162V185H116.322V179.74ZM110.292 183.66H111.042C112.932 183.66 114.092 183.6 115.432 183.34L115.522 184.01C114.152 184.28 112.972 184.34 111.042 184.34H110.292V183.66ZM110.292 180.39H114.572V181.06H111.122V184.09H110.292V180.39ZM112.002 185.23H112.652V185.81C112.652 186.99 111.912 188.18 110.602 188.68L110.192 188.06C111.332 187.65 112.002 186.68 112.002 185.81V185.23ZM112.192 185.23H112.802V185.81C112.802 186.72 113.342 187.69 114.422 188.13L114.082 188.76C112.772 188.25 112.192 187.01 112.192 185.81V185.23ZM115.342 185.23H115.962V185.81C115.962 186.87 115.362 188.21 114.082 188.76L113.722 188.13C114.802 187.64 115.342 186.59 115.342 185.81V185.23ZM115.512 185.23H116.152V185.81C116.152 186.74 116.822 187.67 117.972 188.06L117.562 188.68C116.242 188.2 115.512 187.06 115.512 185.81V185.23ZM120.051 182.45H126.191V183.13H120.051V182.45ZM118.941 184.34H127.141V185.02H118.941V184.34ZM120.051 180.07H120.871V182.79H120.051V180.07ZM119.991 187.88H126.241V188.56H119.991V187.88ZM119.991 185.92H120.811V188.06H119.991V185.92ZM130.54 181.03H131.21V182.5C131.21 184.41 130.06 186.33 128.62 187.04L128.14 186.38C129.45 185.76 130.54 184.06 130.54 182.5V181.03ZM130.7 181.03H131.37V182.5C131.37 184.03 132.46 185.59 133.79 186.16L133.32 186.82C131.86 186.14 130.7 184.38 130.7 182.5V181.03ZM128.44 180.66H133.49V181.36H128.44V180.66ZM134.71 179.74H135.54V188.78H134.71V179.74ZM139.696 180.71H144.726V181.39H139.696V180.71ZM139.566 186.55L139.466 185.84C141.096 185.84 143.286 185.82 145.146 185.59L145.196 186.21C143.306 186.52 141.156 186.55 139.566 186.55ZM140.666 181.22H141.476V186.03H140.666V181.22ZM142.946 181.22H143.756V186.03H142.946V181.22ZM145.696 179.74H146.536V188.78H145.696V179.74ZM146.336 183.35H148.016V184.05H146.336V183.35ZM151.305 180.27C152.665 180.27 153.665 181.15 153.665 182.42C153.665 183.68 152.665 184.55 151.305 184.55C149.945 184.55 148.945 183.68 148.945 182.42C148.945 181.15 149.945 180.27 151.305 180.27ZM151.305 180.98C150.405 180.98 149.755 181.56 149.755 182.42C149.755 183.27 150.405 183.86 151.305 183.86C152.205 183.86 152.855 183.27 152.855 182.42C152.855 181.56 152.205 180.98 151.305 180.98ZM154.965 179.74H155.795V185.06H154.965V179.74ZM155.565 182.06H157.135V182.76H155.565V182.06ZM149.925 185.53H155.795V188.79H154.965V186.2H149.925V185.53ZM157.974 184.49H166.144V185.17H157.974V184.49ZM159.034 187.9H165.244V188.58H159.034V187.9ZM159.034 185.96H159.864V188.11H159.034V185.96ZM162.064 180.04C163.994 180.04 165.244 180.72 165.244 181.85C165.244 182.97 163.994 183.65 162.064 183.65C160.124 183.65 158.884 182.97 158.884 181.85C158.884 180.72 160.124 180.04 162.064 180.04ZM162.064 180.72C160.644 180.72 159.734 181.14 159.734 181.85C159.734 182.56 160.644 182.98 162.064 182.98C163.484 182.98 164.394 182.56 164.394 181.85C164.394 181.14 163.484 180.72 162.064 180.72ZM175.6 179.73H176.43V186.39H175.6V179.73ZM176.17 182.48H177.77V183.17H176.17V182.48ZM170.8 187.9H176.84V188.58H170.8V187.9ZM170.8 185.71H171.63V188.17H170.8V185.71ZM171.94 180.37C173.29 180.37 174.3 181.3 174.3 182.6C174.3 183.91 173.29 184.83 171.94 184.83C170.59 184.83 169.58 183.91 169.58 182.6C169.58 181.3 170.59 180.37 171.94 180.37ZM171.94 181.1C171.06 181.1 170.39 181.72 170.39 182.6C170.39 183.49 171.06 184.1 171.94 184.1C172.82 184.1 173.49 183.49 173.49 182.6C173.49 181.72 172.82 181.1 171.94 181.1ZM179.329 183.63H183.959V184.31H179.329V183.63ZM181.179 184.17H182.019V186.25H181.179V184.17ZM179.329 180.59H183.909V181.27H180.159V183.87H179.329V180.59ZM185.149 179.73H185.979V188.79H185.149V179.73ZM178.779 186.83L178.659 186.14C180.429 186.13 182.649 186.11 184.559 185.88L184.629 186.5C182.649 186.8 180.489 186.84 178.779 186.83ZM188.918 182.45H195.058V183.13H188.918V182.45ZM187.808 184.34H196.008V185.02H187.808V184.34ZM188.918 180.07H189.738V182.79H188.918V180.07ZM188.858 187.88H195.108V188.56H188.858V187.88ZM188.858 185.92H189.678V188.06H188.858V185.92ZM203.888 179.74H204.688V188.78H203.888V179.74ZM200.138 183.19H202.408V183.87H200.138V183.19ZM202.068 179.95H202.858V188.32H202.068V179.95ZM197.348 185.91H197.928C199.338 185.91 200.188 185.87 201.188 185.66L201.268 186.35C200.238 186.57 199.368 186.61 197.928 186.61H197.348V185.91ZM197.348 180.84H200.748V181.52H198.168V186.18H197.348V180.84ZM210.843 181.03H211.513V182.5C211.513 184.41 210.363 186.33 208.923 187.04L208.443 186.38C209.753 185.76 210.843 184.06 210.843 182.5V181.03ZM211.003 181.03H211.673V182.5C211.673 184.03 212.763 185.59 214.093 186.16L213.623 186.82C212.163 186.14 211.003 184.38 211.003 182.5V181.03ZM208.743 180.66H213.793V181.36H208.743V180.66ZM215.013 179.74H215.843V188.78H215.013V179.74ZM218.692 180.21H224.512V180.89H218.692V180.21ZM217.652 183.54H225.842V184.22H217.652V183.54ZM223.972 180.21H224.782V180.88C224.782 181.65 224.782 182.53 224.482 183.78L223.672 183.74C223.972 182.5 223.972 181.63 223.972 180.88V180.21ZM218.652 185.45H224.812V188.66H218.652V185.45ZM224.002 186.11H219.462V187.99H224.002V186.11ZM233.408 181.4H235.828V182.08H233.408V181.4ZM233.328 183.28H235.768V183.96H233.328V183.28ZM235.688 179.74H236.518V185.16H235.688V179.74ZM232.858 180.42H233.748C233.748 182.75 232.138 184.38 229.538 185.16L229.198 184.49C231.508 183.82 232.858 182.49 232.858 180.78V180.42ZM229.668 180.42H233.428V181.1H229.668V180.42ZM233.578 185.26C235.408 185.26 236.568 185.91 236.568 187C236.568 188.09 235.408 188.74 233.578 188.74C231.748 188.74 230.588 188.09 230.588 187C230.588 185.91 231.748 185.26 233.578 185.26ZM233.578 185.91C232.258 185.91 231.408 186.32 231.408 187C231.408 187.68 232.258 188.08 233.578 188.08C234.908 188.08 235.758 187.68 235.758 187C235.758 186.32 234.908 185.91 233.578 185.91ZM240.537 181.1H241.217V181.48C241.217 182.9 240.157 184.03 238.627 184.45L238.257 183.81C239.597 183.46 240.537 182.54 240.537 181.48V181.1ZM240.687 181.1H241.367V181.48C241.367 182.45 242.277 183.31 243.597 183.64L243.237 184.28C241.717 183.89 240.687 182.81 240.687 181.48V181.1ZM238.537 180.66H243.357V181.34H238.537V180.66ZM240.537 179.7H241.367V181.02H240.537V179.7ZM244.467 179.74H245.297V184.5H244.467V179.74ZM244.937 181.74H246.627V182.43H244.937V181.74ZM239.557 184.95H245.297V187.08H240.397V188.39H239.577V186.47H244.487V185.6H239.557V184.95ZM239.577 188.03H245.627V188.68H239.577V188.03ZM251.146 183.25H252.856V183.94H251.146V183.25ZM254.366 179.74H255.166V188.78H254.366V179.74ZM252.576 179.93H253.366V188.33H252.576V179.93ZM249.516 180.49C250.686 180.49 251.446 181.7 251.446 183.64C251.446 185.58 250.686 186.79 249.516 186.79C248.346 186.79 247.596 185.58 247.596 183.64C247.596 181.7 248.346 180.49 249.516 180.49ZM249.516 181.26C248.806 181.26 248.356 182.18 248.356 183.64C248.356 185.1 248.806 186.02 249.516 186.02C250.236 186.02 250.686 185.1 250.686 183.64C250.686 182.18 250.236 181.26 249.516 181.26ZM265.492 179.75H266.332V186.37H265.492V179.75ZM260.522 187.9H266.602V188.58H260.522V187.9ZM260.522 185.76H261.342V188.22H260.522V185.76ZM261.272 180.24H261.962V181.16C261.962 182.92 260.962 184.46 259.442 185.08L259.012 184.41C260.372 183.88 261.272 182.56 261.272 181.16V180.24ZM261.422 180.24H262.102V181.16C262.102 182.52 263.012 183.75 264.362 184.24L263.922 184.91C262.422 184.33 261.422 182.88 261.422 181.16V180.24ZM268.981 180.64H274.801V181.33H268.981V180.64ZM268.121 186.83H276.291V187.52H268.121V186.83ZM271.291 183.6H272.121V187.17H271.291V183.6ZM274.491 180.64H275.311V181.54C275.311 182.66 275.311 183.9 274.981 185.73L274.151 185.62C274.491 183.89 274.491 182.62 274.491 181.54V180.64ZM278.42 182.45H284.56V183.13H278.42V182.45ZM277.31 184.34H285.51V185.02H277.31V184.34ZM278.42 180.07H279.24V182.79H278.42V180.07ZM278.36 187.88H284.61V188.56H278.36V187.88ZM278.36 185.92H279.18V188.06H278.36V185.92ZM288.736 181.28H293.216V181.96H288.736V181.28ZM290.976 182.56C292.106 182.56 292.926 183.41 292.926 184.63C292.926 185.84 292.106 186.69 290.976 186.69C289.856 186.69 289.036 185.84 289.036 184.63C289.036 183.41 289.856 182.56 290.976 182.56ZM290.976 183.27C290.286 183.27 289.786 183.83 289.786 184.63C289.786 185.43 290.286 185.99 290.976 185.99C291.676 185.99 292.186 185.43 292.186 184.63C292.186 183.83 291.676 183.27 290.976 183.27ZM295.606 179.74H296.406V188.78H295.606V179.74ZM294.166 183.54H295.876V184.23H294.166V183.54ZM293.676 179.94H294.456V188.34H293.676V179.94ZM290.576 180H291.396V181.7H290.576V180ZM300.405 184.79H301.225V188.5H300.405V184.79ZM304.555 179.74H305.385V188.79H304.555V179.74ZM298.005 185.18L297.905 184.49C299.715 184.48 301.915 184.46 303.865 184.27L303.915 184.88C301.925 185.13 299.775 185.17 298.005 185.18ZM302.495 185.91H304.755V186.57H302.495V185.91ZM298.715 182.75H303.175V183.43H298.715V182.75ZM298.715 180.22H303.065V180.91H299.545V183.21H298.715V180.22ZM61.01 196.8H63.53V197.48H61.01V196.8ZM58.83 194.52H59.51V196.13C59.51 198.16 58.44 200.1 57.01 200.87L56.48 200.21C57.81 199.55 58.83 197.81 58.83 196.13V194.52ZM58.99 194.52H59.66V196.13C59.66 197.78 60.68 199.42 61.99 200.04L61.5 200.71C60.04 199.97 58.99 198.11 58.99 196.13V194.52ZM63.12 193.73H63.94V202.79H63.12V193.73ZM71.5855 194.06H72.3155V194.56C72.3155 196.29 70.5555 197.53 68.6755 197.85L68.3455 197.18C69.9955 196.93 71.5855 195.85 71.5855 194.56V194.06ZM71.7355 194.06H72.4555V194.56C72.4555 195.82 74.0655 196.93 75.6955 197.18L75.3655 197.85C73.5055 197.53 71.7355 196.27 71.7355 194.56V194.06ZM71.5855 199.34H72.4055V202.78H71.5855V199.34ZM67.9355 198.83H76.1055V199.52H67.9355V198.83ZM79.0248 194.28H79.6848V195.49C79.6848 196.85 78.9148 198.28 77.5848 198.89L77.1348 198.24C78.3148 197.71 79.0248 196.52 79.0248 195.49V194.28ZM79.1548 194.28H79.8148V195.49C79.8148 196.52 80.4848 197.55 81.6448 198.02L81.2048 198.66C79.8948 198.11 79.1548 196.84 79.1548 195.49V194.28ZM83.9548 193.75H84.7448V199.21H83.9548V193.75ZM82.4948 196.09H84.2048V196.78H82.4948V196.09ZM82.0148 193.9H82.8048V199.16H82.0148V193.9ZM78.6848 199.7H84.7448V202.78H83.9248V200.38H78.6848V199.7ZM86.314 195.28H90.794V195.96H86.314V195.28ZM88.554 196.56C89.684 196.56 90.504 197.41 90.504 198.63C90.504 199.84 89.684 200.69 88.554 200.69C87.434 200.69 86.614 199.84 86.614 198.63C86.614 197.41 87.434 196.56 88.554 196.56ZM88.554 197.27C87.864 197.27 87.364 197.83 87.364 198.63C87.364 199.43 87.864 199.99 88.554 199.99C89.254 199.99 89.764 199.43 89.764 198.63C89.764 197.83 89.254 197.27 88.554 197.27ZM93.184 193.74H93.984V202.78H93.184V193.74ZM91.744 197.54H93.454V198.23H91.744V197.54ZM91.254 193.94H92.034V202.34H91.254V193.94ZM88.154 194H88.974V195.7H88.154V194ZM96.3932 194.64H102.213V195.33H96.3932V194.64ZM95.5332 200.83H103.703V201.52H95.5332V200.83ZM98.7032 197.6H99.5332V201.17H98.7032V197.6ZM101.903 194.64H102.723V195.54C102.723 196.66 102.723 197.9 102.393 199.73L101.563 199.62C101.903 197.89 101.903 196.62 101.903 195.54V194.64ZM109.219 199.3H109.859V199.79C109.859 200.97 109.119 202.16 107.819 202.66L107.399 202.04C108.539 201.63 109.219 200.66 109.219 199.79V199.3ZM109.399 199.3H110.019V199.79C110.019 200.7 110.559 201.67 111.639 202.11L111.289 202.74C109.989 202.23 109.399 200.99 109.399 199.79V199.3ZM112.559 199.3H113.179V199.79C113.179 200.85 112.579 202.19 111.289 202.74L110.939 202.11C112.009 201.62 112.559 200.57 112.559 199.79V199.3ZM112.729 199.3H113.369V199.79C113.369 200.72 114.039 201.65 115.189 202.04L114.769 202.66C113.449 202.18 112.729 201.04 112.729 199.79V199.3ZM113.539 193.75H114.379V198.91H113.539V193.75ZM109.529 194.27C110.899 194.27 111.879 195.13 111.879 196.38C111.879 197.63 110.899 198.48 109.529 198.48C108.159 198.48 107.169 197.63 107.169 196.38C107.169 195.13 108.159 194.27 109.529 194.27ZM109.529 194.96C108.629 194.96 107.979 195.54 107.979 196.38C107.979 197.22 108.629 197.79 109.529 197.79C110.429 197.79 111.079 197.22 111.079 196.38C111.079 195.54 110.429 194.96 109.529 194.96ZM122.738 193.74H123.568V200.31H122.738V193.74ZM120.078 194.42H120.948C120.948 196.77 119.298 198.51 116.648 199.34L116.308 198.66C118.638 197.95 120.078 196.54 120.078 194.77V194.42ZM116.788 194.42H120.548V195.11H116.788V194.42ZM117.708 201.9H123.798V202.59H117.708V201.9ZM117.708 199.78H118.538V202.15H117.708V199.78ZM133.784 193.74H134.614V198.99H133.784V193.74ZM134.254 196.04H135.954V196.74H134.254V196.04ZM128.934 199.39H129.744V200.35H133.794V199.39H134.614V202.66H128.934V199.39ZM129.744 200.99V201.99H133.794V200.99H129.744ZM127.624 194.66H132.964V195.34H127.624V194.66ZM130.294 195.75C131.584 195.75 132.454 196.38 132.454 197.34C132.454 198.3 131.584 198.93 130.294 198.93C128.994 198.93 128.124 198.3 128.124 197.34C128.124 196.38 128.994 195.75 130.294 195.75ZM130.294 196.38C129.464 196.38 128.914 196.76 128.914 197.34C128.914 197.92 129.464 198.3 130.294 198.3C131.104 198.3 131.664 197.92 131.664 197.34C131.664 196.76 131.104 196.38 130.294 196.38ZM129.874 193.65H130.704V195.03H129.874V193.65ZM143.373 193.74H144.203V202.78H143.373V193.74ZM137.373 194.62H138.193V200.22H137.373V194.62ZM137.373 199.73H138.113C139.483 199.73 140.913 199.63 142.443 199.31L142.543 200.02C140.973 200.34 139.543 200.45 138.113 200.45H137.373V199.73ZM152.112 193.73H152.952V202.79H152.112V193.73ZM152.752 197.3H154.432V198H152.752V197.3ZM146.382 199.84H147.092C148.762 199.84 149.932 199.78 151.282 199.53L151.372 200.23C149.982 200.49 148.792 200.54 147.092 200.54H146.382V199.84ZM146.382 194.61H150.582V195.29H147.202V200.15H146.382V194.61ZM156.081 202.14C155.721 202.14 155.431 201.85 155.431 201.44C155.431 201.02 155.721 200.74 156.081 200.74C156.451 200.74 156.751 201.02 156.751 201.44C156.751 201.85 156.451 202.14 156.081 202.14Z" fill="#333333"/>
<path d="M27.79 222.07C27.79 221.53 28.225 221.095 28.84 221.095C29.47 221.095 29.89 221.53 29.89 222.07C29.89 222.625 29.47 223.075 28.84 223.075C28.225 223.075 27.79 222.625 27.79 222.07ZM27.79 226.245C27.79 225.705 28.225 225.27 28.84 225.27C29.47 225.27 29.89 225.705 29.89 226.245C29.89 226.8 29.47 227.25 28.84 227.25C28.225 227.25 27.79 226.8 27.79 226.245ZM27.79 230.42C27.79 229.88 28.225 229.445 28.84 229.445C29.47 229.445 29.89 229.88 29.89 230.42C29.89 230.975 29.47 231.425 28.84 231.425C28.225 231.425 27.79 230.975 27.79 230.42Z" fill="#333333"/>
<path d="M60.068 230V224.264C60.068 223.82 60.104 223.076 60.14 222.632H60.08C59.864 223.028 59.624 223.412 59.384 223.832L57.38 226.772H62.276V227.636H56.228V226.916L59.888 221.456H61.1V230H60.068ZM66.4438 230V223.484H67.3318L67.4398 224.432H67.4758C68.0398 223.82 68.7238 223.328 69.5038 223.328C70.4998 223.328 71.0398 223.796 71.2918 224.564C71.9758 223.844 72.6598 223.328 73.4518 223.328C74.7838 223.328 75.4318 224.216 75.4318 225.872V230H74.3398V226.016C74.3398 224.792 73.9558 224.276 73.1158 224.276C72.6118 224.276 72.0958 224.612 71.4838 225.272V230H70.3918V226.016C70.3918 224.792 70.0078 224.276 69.1678 224.276C68.6758 224.276 68.1238 224.612 67.5358 225.272V230H66.4438ZM80.0852 230.168C78.4772 230.168 77.0612 228.908 77.0612 226.76C77.0612 224.576 78.4772 223.328 80.0852 223.328C81.6812 223.328 83.0972 224.576 83.0972 226.76C83.0972 228.908 81.6812 230.168 80.0852 230.168ZM80.0852 229.256C81.2132 229.256 81.9692 228.248 81.9692 226.76C81.9692 225.248 81.2132 224.24 80.0852 224.24C78.9452 224.24 78.1892 225.248 78.1892 226.76C78.1892 228.248 78.9452 229.256 80.0852 229.256ZM84.8306 230V223.484H85.7186L85.8266 224.672H85.8626C86.3066 223.844 86.9786 223.328 87.7106 223.328C87.9986 223.328 88.1906 223.364 88.4066 223.46L88.2026 224.42C87.9746 224.348 87.8306 224.312 87.5666 224.312C87.0266 224.312 86.3546 224.708 85.9226 225.824V230H84.8306ZM91.9468 230.168C90.2068 230.168 88.8268 228.896 88.8268 226.76C88.8268 224.636 90.2548 223.328 91.7548 223.328C93.4108 223.328 94.3468 224.516 94.3468 226.388C94.3468 226.616 94.3348 226.844 94.2988 227.012H89.9068C89.9908 228.392 90.8308 229.292 92.0788 229.292C92.7028 229.292 93.2188 229.088 93.6988 228.764L94.0948 229.496C93.5188 229.868 92.8348 230.168 91.9468 230.168ZM89.8948 226.22H93.3868C93.3868 224.912 92.7988 224.204 91.7668 224.204C90.8548 224.204 90.0388 224.936 89.8948 226.22Z" fill="#888888"/>
<path d="M60.068 230V224.264C60.068 223.82 60.104 223.076 60.14 222.632H60.08C59.864 223.028 59.624 223.412 59.384 223.832L57.38 226.772H62.276V227.636H56.228V226.916L59.888 221.456H61.1V230H60.068ZM66.4438 230V223.484H67.3318L67.4398 224.432H67.4758C68.0398 223.82 68.7238 223.328 69.5038 223.328C70.4998 223.328 71.0398 223.796 71.2918 224.564C71.9758 223.844 72.6598 223.328 73.4518 223.328C74.7838 223.328 75.4318 224.216 75.4318 225.872V230H74.3398V226.016C74.3398 224.792 73.9558 224.276 73.1158 224.276C72.6118 224.276 72.0958 224.612 71.4838 225.272V230H70.3918V226.016C70.3918 224.792 70.0078 224.276 69.1678 224.276C68.6758 224.276 68.1238 224.612 67.5358 225.272V230H66.4438ZM80.0852 230.168C78.4772 230.168 77.0612 228.908 77.0612 226.76C77.0612 224.576 78.4772 223.328 80.0852 223.328C81.6812 223.328 83.0972 224.576 83.0972 226.76C83.0972 228.908 81.6812 230.168 80.0852 230.168ZM80.0852 229.256C81.2132 229.256 81.9692 228.248 81.9692 226.76C81.9692 225.248 81.2132 224.24 80.0852 224.24C78.9452 224.24 78.1892 225.248 78.1892 226.76C78.1892 228.248 78.9452 229.256 80.0852 229.256ZM84.8306 230V223.484H85.7186L85.8266 224.672H85.8626C86.3066 223.844 86.9786 223.328 87.7106 223.328C87.9986 223.328 88.1906 223.364 88.4066 223.46L88.2026 224.42C87.9746 224.348 87.8306 224.312 87.5666 224.312C87.0266 224.312 86.3546 224.708 85.9226 225.824V230H84.8306ZM91.9468 230.168C90.2068 230.168 88.8268 228.896 88.8268 226.76C88.8268 224.636 90.2548 223.328 91.7548 223.328C93.4108 223.328 94.3468 224.516 94.3468 226.388C94.3468 226.616 94.3348 226.844 94.2988 227.012H89.9068C89.9908 228.392 90.8308 229.292 92.0788 229.292C92.7028 229.292 93.2188 229.088 93.6988 228.764L94.0948 229.496C93.5188 229.868 92.8348 230.168 91.9468 230.168ZM89.8948 226.22H93.3868C93.3868 224.912 92.7988 224.204 91.7668 224.204C90.8548 224.204 90.0388 224.936 89.8948 226.22Z" fill="black" fill-opacity="0.2"/>
</svg>
