<svg width="333" height="132" viewBox="0 0 333 132" fill="none" xmlns="http://www.w3.org/2000/svg">
<rect width="333" height="132" rx="15" fill="white"/>
<path d="M16.204 29V18.57H19.2C22.378 18.57 24.478 20.11 24.478 23.736C24.478 27.362 22.378 29 19.34 29H16.204ZM18.71 26.984H19.046C20.726 26.984 21.916 26.214 21.916 23.736C21.916 21.258 20.726 20.572 19.046 20.572H18.71V26.984ZM29.8192 29.196C27.5232 29.196 25.7592 27.656 25.7592 25.01C25.7592 22.434 27.6212 20.838 29.5392 20.838C31.8352 20.838 32.9552 22.504 32.9552 24.674C32.9552 25.122 32.8992 25.556 32.8432 25.752H28.1672C28.3912 26.844 29.1472 27.292 30.1552 27.292C30.7292 27.292 31.2612 27.124 31.8352 26.788L32.6612 28.286C31.8352 28.874 30.7432 29.196 29.8192 29.196ZM28.1252 24.114H30.8412C30.8412 23.33 30.4912 22.742 29.5812 22.742C28.8952 22.742 28.2932 23.176 28.1252 24.114ZM37.4233 29.196C35.4213 29.196 34.6093 27.922 34.6093 26.046V22.98H33.5313V21.132L34.7633 21.034L35.0433 18.92H37.1013V21.034H38.9773V22.98H37.1013V26.018C37.1013 26.9 37.5213 27.25 38.1093 27.25C38.3613 27.25 38.6413 27.166 38.8373 27.096L39.2293 28.902C38.8093 29.028 38.2353 29.196 37.4233 29.196ZM43.7372 29.196C41.4412 29.196 39.6772 27.656 39.6772 25.01C39.6772 22.434 41.5392 20.838 43.4572 20.838C45.7532 20.838 46.8732 22.504 46.8732 24.674C46.8732 25.122 46.8172 25.556 46.7612 25.752H42.0852C42.3092 26.844 43.0652 27.292 44.0732 27.292C44.6472 27.292 45.1792 27.124 45.7532 26.788L46.5792 28.286C45.7532 28.874 44.6612 29.196 43.7372 29.196ZM42.0432 24.114H44.7592C44.7592 23.33 44.4092 22.742 43.4992 22.742C42.8132 22.742 42.2112 23.176 42.0432 24.114ZM51.979 29.196C49.739 29.196 48.017 27.656 48.017 25.01C48.017 22.378 49.977 20.838 52.203 20.838C53.169 20.838 53.925 21.174 54.527 21.692L53.365 23.274C53.001 22.98 52.693 22.854 52.357 22.854C51.251 22.854 50.565 23.694 50.565 25.01C50.565 26.34 51.293 27.18 52.259 27.18C52.763 27.18 53.239 26.942 53.645 26.62L54.611 28.258C53.827 28.944 52.819 29.196 51.979 29.196ZM58.8608 29.196C56.8588 29.196 56.0468 27.922 56.0468 26.046V22.98H54.9688V21.132L56.2008 21.034L56.4808 18.92H58.5388V21.034H60.4148V22.98H58.5388V26.018C58.5388 26.9 58.9588 27.25 59.5468 27.25C59.7988 27.25 60.0788 27.166 60.2748 27.096L60.6668 28.902C60.2468 29.028 59.6728 29.196 58.8608 29.196ZM65.1747 29.196C62.8787 29.196 61.1147 27.656 61.1147 25.01C61.1147 22.434 62.9767 20.838 64.8947 20.838C67.1907 20.838 68.3107 22.504 68.3107 24.674C68.3107 25.122 68.2547 25.556 68.1987 25.752H63.5227C63.7467 26.844 64.5027 27.292 65.5107 27.292C66.0847 27.292 66.6167 27.124 67.1907 26.788L68.0167 28.286C67.1907 28.874 66.0987 29.196 65.1747 29.196ZM63.4807 24.114H66.1967C66.1967 23.33 65.8467 22.742 64.9367 22.742C64.2507 22.742 63.6487 23.176 63.4807 24.114ZM72.7585 29.196C70.7705 29.196 69.4965 27.614 69.4965 25.01C69.4965 22.406 71.1345 20.838 72.7865 20.838C73.6685 20.838 74.1865 21.16 74.7045 21.664L74.6205 20.474V17.814H77.1125V29H75.0825L74.9005 28.23H74.8445C74.2845 28.79 73.5145 29.196 72.7585 29.196ZM73.4165 27.152C73.8925 27.152 74.2705 26.998 74.6205 26.48V23.344C74.2425 22.994 73.7945 22.868 73.3745 22.868C72.6885 22.868 72.0585 23.512 72.0585 24.982C72.0585 26.508 72.5625 27.152 73.4165 27.152ZM86.5726 29.196C85.8726 29.196 85.1446 28.832 84.5286 28.146H84.4586L84.2626 29H82.3166V17.814H84.8086V20.502L84.7386 21.692C85.3266 21.16 86.0686 20.838 86.7966 20.838C88.7006 20.838 89.9186 22.434 89.9186 24.87C89.9186 27.628 88.2806 29.196 86.5726 29.196ZM85.9846 27.152C86.7406 27.152 87.3566 26.522 87.3566 24.926C87.3566 23.526 86.9506 22.868 86.0686 22.868C85.6066 22.868 85.2286 23.078 84.8086 23.54V26.69C85.1866 27.04 85.6066 27.152 85.9846 27.152ZM92.2793 32.066C91.7613 32.066 91.4393 32.01 91.1033 31.912L91.5513 30.022C91.6913 30.05 91.9013 30.12 92.0833 30.12C92.8393 30.12 93.2313 29.728 93.4133 29.168L93.5253 28.762L90.4733 21.034H92.9793L94.0433 24.338C94.2813 25.066 94.4493 25.808 94.6593 26.592H94.7293C94.8833 25.836 95.0653 25.094 95.2473 24.338L96.1713 21.034H98.5513L95.8073 29.014C95.0373 31.058 94.1693 32.066 92.2793 32.066ZM107.54 29.196C104.894 29.196 102.654 27.376 102.654 23.848C102.654 20.376 104.978 18.388 107.624 18.388C108.982 18.388 110.074 19.018 110.788 19.746L109.486 21.342C108.954 20.866 108.408 20.53 107.666 20.53C106.322 20.53 105.216 21.734 105.216 23.764C105.216 25.836 106.168 27.04 107.638 27.04C108.478 27.04 109.136 26.62 109.626 26.088L110.942 27.656C110.06 28.678 108.898 29.196 107.54 29.196ZM116.167 29.196C113.521 29.196 111.281 27.376 111.281 23.848C111.281 20.376 113.605 18.388 116.251 18.388C117.609 18.388 118.701 19.018 119.415 19.746L118.113 21.342C117.581 20.866 117.035 20.53 116.293 20.53C114.949 20.53 113.843 21.734 113.843 23.764C113.843 25.836 114.795 27.04 116.265 27.04C117.105 27.04 117.763 26.62 118.253 26.088L119.569 27.656C118.687 28.678 117.525 29.196 116.167 29.196ZM122.824 29V20.656H120.01V18.57H128.158V20.656H125.33V29H122.824ZM131.555 29L128.433 18.57H131.079L132.269 23.33C132.577 24.45 132.787 25.514 133.081 26.662H133.151C133.459 25.514 133.669 24.45 133.963 23.33L135.139 18.57H137.687L134.565 29H131.555Z" fill="#333333"/>
<path d="M307.6 18.2001L312.4 23.0001L307.6 27.8001" stroke="#252525"/>
<circle cx="30" cy="60" r="15" fill="#D43A18"/>
<path fill-rule="evenodd" clip-rule="evenodd" d="M32.7722 57.4885C32.7722 59.055 31.5234 60.311 29.966 60.311C28.4086 60.311 27.1598 59.055 27.1598 57.4885C27.1598 55.9215 28.4086 54.6666 29.966 54.6666C31.5234 54.6666 32.7722 55.9215 32.7722 57.4885ZM29.966 65.3333C27.6786 65.3333 25.7254 64.9706 25.7254 63.5201C25.7254 62.0689 27.666 61.693 29.966 61.693C32.2535 61.693 34.2066 62.0557 34.2066 63.5069C34.2066 64.9574 32.266 65.3333 29.966 65.3333ZM33.9714 57.5394C33.9714 58.338 33.7332 59.0819 33.3154 59.7003C33.2724 59.7639 33.3106 59.8498 33.3864 59.863C33.4909 59.881 33.5989 59.8912 33.7087 59.8942C34.8041 59.923 35.7873 59.214 36.0589 58.1465C36.4612 56.5608 35.2799 55.1372 33.7756 55.1372C33.612 55.1372 33.4556 55.1546 33.3034 55.1859C33.2825 55.1907 33.2604 55.2003 33.2485 55.2189C33.2342 55.2417 33.2449 55.2723 33.2592 55.2921C33.7111 55.9292 33.9714 56.7061 33.9714 57.5394ZM35.7855 61.0083C36.5215 61.153 37.0056 61.4484 37.2062 61.8777C37.3757 62.2302 37.3757 62.639 37.2062 62.9909C36.8994 63.6567 35.9102 63.8705 35.5258 63.9257C35.4464 63.9377 35.3825 63.8687 35.3909 63.7888C35.5873 61.9438 34.0251 61.069 33.621 60.8678C33.6037 60.8588 33.6001 60.845 33.6019 60.8366C33.6031 60.8306 33.6102 60.821 33.6234 60.8192C34.4979 60.803 35.4381 60.9231 35.7855 61.0083ZM26.2914 59.8942C26.4012 59.8912 26.5087 59.8816 26.6137 59.8629C26.6896 59.8497 26.7278 59.7639 26.6848 59.7002C26.2669 59.0818 26.0287 58.3379 26.0287 57.5394C26.0287 56.706 26.289 55.9291 26.7409 55.2921C26.7552 55.2723 26.7654 55.2416 26.7516 55.2188C26.7397 55.2008 26.717 55.1906 26.6967 55.1858C26.5439 55.1546 26.3875 55.1372 26.2239 55.1372C24.7197 55.1372 23.5383 56.5607 23.9413 58.1464C24.2129 59.2139 25.196 59.923 26.2914 59.8942ZM26.3979 60.8363C26.3997 60.8453 26.3962 60.8585 26.3794 60.8681C25.9747 61.0692 24.4125 61.944 24.6089 63.7885C24.6173 63.8689 24.554 63.9374 24.4746 63.9259C24.0902 63.8707 23.1011 63.657 22.7943 62.9911C22.6241 62.6387 22.6241 62.2304 22.7943 61.878C22.9948 61.4487 23.4783 61.1533 24.2144 61.008C24.5624 60.9233 25.5019 60.8032 26.3771 60.8195C26.3902 60.8213 26.3968 60.8309 26.3979 60.8363Z" fill="white"/>
<path d="M57.092 48.676H61.868V49.684H57.092V48.676ZM58.616 51.088H59.852V53.74H58.616V51.088ZM61.364 48.676H62.612V49.324C62.612 50.02 62.612 51.004 62.336 52.252L61.112 52.144C61.364 50.92 61.364 50.02 61.364 49.324V48.676ZM63.908 48.028H65.18V54.796H63.908V48.028ZM64.64 50.884H66.632V51.928H64.64V50.884ZM56.564 54.184L56.432 53.164C58.412 53.164 61.04 53.14 63.236 52.852L63.32 53.752C61.064 54.136 58.52 54.184 56.564 54.184ZM61.568 54.928C63.86 54.928 65.276 55.684 65.276 56.944C65.276 58.228 63.86 58.972 61.568 58.972C59.276 58.972 57.86 58.228 57.86 56.944C57.86 55.684 59.276 54.928 61.568 54.928ZM61.568 55.9C60.032 55.9 59.132 56.272 59.132 56.944C59.132 57.628 60.032 57.988 61.568 57.988C63.104 57.988 63.992 57.628 63.992 56.944C63.992 56.272 63.104 55.9 61.568 55.9ZM71.8271 49.168H72.9191V49.576C72.9191 51.52 71.0591 53.02 68.5991 53.392L68.1191 52.408C70.2671 52.12 71.8271 50.872 71.8271 49.576V49.168ZM72.1751 49.168H73.2551V49.576C73.2551 50.872 74.8271 52.12 76.9631 52.408L76.4951 53.392C74.0231 53.02 72.1751 51.52 72.1751 49.576V49.168ZM71.8871 54.892H73.1351V58.996H71.8871V54.892ZM67.5911 54.184H77.5031V55.204H67.5911V54.184ZM68.4911 48.652H76.5671V49.66H68.4911V48.652ZM81.8654 48.676H86.6414V49.684H81.8654V48.676ZM83.3894 51.088H84.6254V53.74H83.3894V51.088ZM86.1374 48.676H87.3854V49.324C87.3854 50.02 87.3854 51.004 87.1094 52.252L85.8854 52.144C86.1374 50.92 86.1374 50.02 86.1374 49.324V48.676ZM88.6814 48.028H89.9534V54.796H88.6814V48.028ZM89.4134 50.884H91.4054V51.928H89.4134V50.884ZM81.3374 54.184L81.2054 53.164C83.1854 53.164 85.8134 53.14 88.0094 52.852L88.0934 53.752C85.8374 54.136 83.2934 54.184 81.3374 54.184ZM86.3414 54.928C88.6334 54.928 90.0494 55.684 90.0494 56.944C90.0494 58.228 88.6334 58.972 86.3414 58.972C84.0494 58.972 82.6334 58.228 82.6334 56.944C82.6334 55.684 84.0494 54.928 86.3414 54.928ZM86.3414 55.9C84.8054 55.9 83.9054 56.272 83.9054 56.944C83.9054 57.628 84.8054 57.988 86.3414 57.988C87.8774 57.988 88.7654 57.628 88.7654 56.944C88.7654 56.272 87.8774 55.9 86.3414 55.9ZM94.9445 48.7H95.9885V49.972C95.9885 52.132 94.8845 53.92 92.9285 54.628L92.2565 53.644C94.0085 53.044 94.9445 51.58 94.9445 49.972V48.7ZM95.1845 48.7H96.2045V49.996C96.2045 51.436 97.1525 52.828 98.8205 53.404L98.1845 54.388C96.2765 53.728 95.1845 51.988 95.1845 49.996V48.7ZM99.6605 48.028H100.921V56.092H99.6605V48.028ZM100.549 51.304H102.469V52.348H100.549V51.304ZM93.9965 57.76H101.365V58.78H93.9965V57.76ZM93.9965 55.324H95.2685V58.276H93.9965V55.324ZM104.592 48.712H111.456V49.708H104.592V48.712ZM103.404 53.392H113.316V54.424H103.404V53.392ZM107.688 54.1H108.948V59.008H107.688V54.1ZM110.832 48.712H112.068V49.672C112.068 50.836 112.068 52.132 111.648 54.028L110.412 53.872C110.832 52.072 110.832 50.788 110.832 49.672V48.712ZM119.742 49.912H120.762V50.356C120.762 52.228 119.646 53.812 117.69 54.412L117.09 53.428C118.782 52.936 119.742 51.7 119.742 50.356V49.912ZM119.97 49.912H121.002V50.356C121.002 51.616 121.974 52.768 123.666 53.236L123.09 54.22C121.122 53.668 119.97 52.156 119.97 50.356V49.912ZM117.438 49.228H123.306V50.224H117.438V49.228ZM119.742 47.98H121.002V49.648H119.742V47.98ZM123.018 51.004H125.298V52.024H123.018V51.004ZM124.962 48.028H126.222V54.484H124.962V48.028ZM119.022 55.012H126.222V58.864H119.022V55.012ZM124.986 56.008H120.258V57.856H124.986V56.008ZM135.473 48.028H136.733V55.96H135.473V48.028ZM136.361 51.16H138.281V52.204H136.361V51.16ZM128.633 53.068H129.509C131.825 53.068 133.049 53.008 134.453 52.708L134.585 53.716C133.145 54.028 131.873 54.088 129.509 54.088H128.633V53.068ZM128.633 48.94H133.505V49.96H129.881V53.608H128.633V48.94ZM129.797 57.76H137.177V58.78H129.797V57.76ZM129.797 55.144H131.057V58.252H129.797V55.144ZM143.536 53.524H144.784V55.444H143.536V53.524ZM139.204 53.092H149.116V54.1H139.204V53.092ZM144.148 55.084C146.5 55.084 147.928 55.78 147.928 57.04C147.928 58.276 146.5 58.984 144.148 58.984C141.784 58.984 140.368 58.276 140.368 57.04C140.368 55.78 141.784 55.084 144.148 55.084ZM144.148 56.044C142.54 56.044 141.64 56.38 141.64 57.04C141.64 57.676 142.54 58.024 144.148 58.024C145.756 58.024 146.656 57.676 146.656 57.04C146.656 56.38 145.756 56.044 144.148 56.044ZM143.32 48.988H144.436V49.288C144.436 51.004 142.66 52.264 140.14 52.54L139.708 51.544C141.856 51.34 143.32 50.356 143.32 49.288V48.988ZM143.896 48.988H145V49.288C145 50.368 146.464 51.34 148.624 51.544L148.18 52.54C145.672 52.264 143.896 51.004 143.896 49.288V48.988ZM140.116 48.508H148.228V49.516H140.116V48.508ZM153.303 48.652C154.971 48.652 156.219 49.732 156.219 51.28C156.219 52.804 154.971 53.884 153.303 53.884C151.635 53.884 150.399 52.804 150.399 51.28C150.399 49.732 151.635 48.652 153.303 48.652ZM153.303 49.708C152.331 49.708 151.623 50.332 151.623 51.28C151.623 52.228 152.331 52.828 153.303 52.828C154.275 52.828 154.995 52.228 154.995 51.28C154.995 50.332 154.275 49.708 153.303 49.708ZM157.551 48.028H158.811V54.484H157.551V48.028ZM158.463 50.644H160.359V51.688H158.463V50.644ZM155.283 54.772C157.527 54.772 158.931 55.564 158.931 56.884C158.931 58.204 157.527 58.984 155.283 58.984C153.027 58.984 151.623 58.204 151.623 56.884C151.623 55.564 153.027 54.772 155.283 54.772ZM155.283 55.78C153.759 55.78 152.871 56.164 152.871 56.884C152.871 57.604 153.759 57.988 155.283 57.988C156.807 57.988 157.683 57.604 157.683 56.884C157.683 56.164 156.807 55.78 155.283 55.78ZM161.294 56.68H171.23V57.712H161.294V56.68ZM165.614 54.448H166.862V57.1H165.614V54.448ZM162.458 48.796H170.042V52.264H163.73V54.304H162.482V51.268H168.794V49.804H162.458V48.796ZM162.482 53.788H170.294V54.808H162.482V53.788ZM172.801 58V56.86H174.745V50.716H173.149V49.84C173.989 49.696 174.565 49.48 175.081 49.168H176.125V56.86H177.853V58H172.801ZM182.057 58.168C180.389 58.168 179.177 57.184 179.177 55.816C179.177 54.652 179.933 53.86 180.749 53.428V53.38C180.089 52.912 179.561 52.24 179.561 51.316C179.561 49.936 180.641 49.036 182.093 49.036C183.629 49.036 184.577 49.984 184.577 51.364C184.577 52.276 183.965 53.032 183.425 53.452V53.512C184.217 53.956 184.913 54.64 184.913 55.852C184.913 57.16 183.761 58.168 182.057 58.168ZM182.633 53.104C183.161 52.612 183.425 52.048 183.425 51.448C183.425 50.644 182.921 50.032 182.069 50.032C181.349 50.032 180.809 50.524 180.809 51.316C180.809 52.264 181.649 52.708 182.633 53.104ZM182.081 57.16C182.981 57.16 183.605 56.632 183.605 55.804C183.605 54.736 182.633 54.328 181.433 53.824C180.821 54.256 180.389 54.904 180.389 55.672C180.389 56.548 181.121 57.16 182.081 57.16ZM186.489 58V56.86H188.433V50.716H186.837V49.84C187.677 49.696 188.253 49.48 188.769 49.168H189.813V56.86H191.541V58H186.489ZM198.037 51.04H201.037V52.06H198.037V51.04ZM200.689 48.04H201.949V56.14H200.689V48.04ZM194.809 57.76H202.201V58.78H194.809V57.76ZM194.809 55.348H196.069V58.312H194.809V55.348ZM193.357 48.76H194.605V50.572H197.185V48.76H198.421V54.34H193.357V48.76ZM194.605 51.544V53.332H197.185V51.544H194.605ZM211.68 48.028H212.94V53.584H211.68V48.028ZM208.284 48.508H209.664C209.664 51.4 207.852 53.08 204.516 53.812L204.072 52.792C206.976 52.204 208.284 50.896 208.284 49.192V48.508ZM204.636 48.508H209.148V49.516H204.636V48.508ZM205.752 54.076H212.94V56.884H207.024V58.336H205.776V55.96H211.68V55.06H205.752V54.076ZM205.776 57.904H213.264V58.888H205.776V57.904ZM217.602 58V57.196C220.218 54.892 221.55 53.176 221.55 51.724C221.55 50.776 221.046 50.116 220.062 50.116C219.366 50.116 218.79 50.548 218.322 51.088L217.53 50.332C218.298 49.504 219.078 49.012 220.23 49.012C221.85 49.012 222.894 50.056 222.894 51.664C222.894 53.356 221.526 55.12 219.654 56.92C220.11 56.872 220.674 56.824 221.106 56.824H223.314V58H217.602ZM224.95 58V56.86H226.894V50.716H225.298V49.84C226.138 49.696 226.714 49.48 227.23 49.168H228.274V56.86H230.002V58H224.95Z" fill="#333333"/>
<path d="M63.07 64.75H63.91V71.35H63.07V64.75ZM58.1 72.9H64.18V73.58H58.1V72.9ZM58.1 70.67H58.92V73.13H58.1V70.67ZM59.06 65.37C60.41 65.37 61.41 66.29 61.41 67.6C61.41 68.9 60.41 69.83 59.06 69.83C57.71 69.83 56.7 68.9 56.7 67.6C56.7 66.29 57.71 65.37 59.06 65.37ZM59.06 66.09C58.18 66.09 57.51 66.71 57.51 67.6C57.51 68.48 58.18 69.1 59.06 69.1C59.94 69.1 60.61 68.48 60.61 67.6C60.61 66.71 59.94 66.09 59.06 66.09ZM66.7192 65.33H72.3692V66H66.7192V65.33ZM65.6992 69.21H73.8692V69.89H65.6992V69.21ZM69.3492 69.66H70.1792V73.79H69.3492V69.66ZM71.9792 65.33H72.7892V66.11C72.7892 67.05 72.7892 68.11 72.4492 69.64L71.6292 69.53C71.9792 68.07 71.9792 67.02 71.9792 66.11V65.33ZM77.6048 65.24H81.8148V68.94H77.6048V65.24ZM81.0148 65.9H78.4048V68.27H81.0148V65.9ZM83.7048 64.74H84.5348V69.39H83.7048V64.74ZM78.6848 69.84H84.5348V72.03H79.5148V73.3H78.7048V71.41H83.7148V70.5H78.6848V69.84ZM78.7048 73.02H84.8448V73.68H78.7048V73.02ZM88.734 65.52H89.424V66.21C89.424 67.8 88.384 69.14 86.864 69.66L86.444 69C87.804 68.56 88.734 67.44 88.734 66.21V65.52ZM88.894 65.52H89.584V66.21C89.584 67.38 90.534 68.43 91.864 68.85L91.454 69.5C89.954 69.01 88.894 67.74 88.894 66.21V65.52ZM86.674 65.33H91.624V66H86.674V65.33ZM92.904 64.74H93.744V69.63H92.904V64.74ZM87.914 70.08H88.734V71.15H92.924V70.08H93.744V73.66H87.914V70.08ZM88.734 71.82V72.98H92.924V71.82H88.734Z" fill="#D43A18"/>
<path d="M104.39 73V68.01C104.39 67.64 104.42 67.05 104.45 66.67H104.4C104.22 67.03 104.02 67.4 103.82 67.76L102.15 70.26H106.23V70.98H101.19V70.38L104.24 65.67H105.25V73H104.39ZM107.037 69.51H115.227V70.19H107.037V69.51ZM110.777 69.85H111.607V71.93H110.777V69.85ZM108.077 72.9H114.317V73.58H108.077V72.9ZM108.077 71.13H108.897V73.16H108.077V71.13ZM108.127 65.02H108.947V66.17H113.317V65.02H114.147V68.64H108.127V65.02ZM108.947 66.82V67.97H113.317V66.82H108.947ZM123.272 67.23H125.552V67.91H123.272V67.23ZM125.082 64.75H125.912V71.37H125.082V64.75ZM120.142 72.9H126.162V73.58H120.142V72.9ZM120.142 70.79H120.972V73.25H120.142V70.79ZM120.782 65.87H121.462V66.6C121.462 68.24 120.442 69.66 118.932 70.22L118.502 69.56C119.852 69.08 120.782 67.88 120.782 66.6V65.87ZM120.942 65.87H121.612V66.59C121.612 67.76 122.492 68.9 123.802 69.36L123.382 70.01C121.912 69.48 120.942 68.12 120.942 66.59V65.87ZM118.762 65.48H123.592V66.15H118.762V65.48Z" fill="#888888"/>
<path d="M104.39 73V68.01C104.39 67.64 104.42 67.05 104.45 66.67H104.4C104.22 67.03 104.02 67.4 103.82 67.76L102.15 70.26H106.23V70.98H101.19V70.38L104.24 65.67H105.25V73H104.39ZM107.037 69.51H115.227V70.19H107.037V69.51ZM110.777 69.85H111.607V71.93H110.777V69.85ZM108.077 72.9H114.317V73.58H108.077V72.9ZM108.077 71.13H108.897V73.16H108.077V71.13ZM108.127 65.02H108.947V66.17H113.317V65.02H114.147V68.64H108.127V65.02ZM108.947 66.82V67.97H113.317V66.82H108.947ZM123.272 67.23H125.552V67.91H123.272V67.23ZM125.082 64.75H125.912V71.37H125.082V64.75ZM120.142 72.9H126.162V73.58H120.142V72.9ZM120.142 70.79H120.972V73.25H120.142V70.79ZM120.782 65.87H121.462V66.6C121.462 68.24 120.442 69.66 118.932 70.22L118.502 69.56C119.852 69.08 120.782 67.88 120.782 66.6V65.87ZM120.942 65.87H121.612V66.59C121.612 67.76 122.492 68.9 123.802 69.36L123.382 70.01C121.912 69.48 120.942 68.12 120.942 66.59V65.87ZM118.762 65.48H123.592V66.15H118.762V65.48Z" fill="black" fill-opacity="0.2"/>
<circle cx="30" cy="103" r="15" fill="#D43A18"/>
<path fill-rule="evenodd" clip-rule="evenodd" d="M27.7712 102.657L31.5425 98.8856C32.3721 98.0559 34.484 98.0559 35.7851 99.357L26.357 108.785L25.1785 107.607L28.9497 103.835L27.7712 102.657Z" fill="white"/>
<path d="M57.092 91.676H61.868V92.684H57.092V91.676ZM58.616 94.088H59.852V96.74H58.616V94.088ZM61.364 91.676H62.612V92.324C62.612 93.02 62.612 94.004 62.336 95.252L61.112 95.144C61.364 93.92 61.364 93.02 61.364 92.324V91.676ZM63.908 91.028H65.18V97.796H63.908V91.028ZM64.64 93.884H66.632V94.928H64.64V93.884ZM56.564 97.184L56.432 96.164C58.412 96.164 61.04 96.14 63.236 95.852L63.32 96.752C61.064 97.136 58.52 97.184 56.564 97.184ZM61.568 97.928C63.86 97.928 65.276 98.684 65.276 99.944C65.276 101.228 63.86 101.972 61.568 101.972C59.276 101.972 57.86 101.228 57.86 99.944C57.86 98.684 59.276 97.928 61.568 97.928ZM61.568 98.9C60.032 98.9 59.132 99.272 59.132 99.944C59.132 100.628 60.032 100.988 61.568 100.988C63.104 100.988 63.992 100.628 63.992 99.944C63.992 99.272 63.104 98.9 61.568 98.9ZM71.8271 92.168H72.9191V92.576C72.9191 94.52 71.0591 96.02 68.5991 96.392L68.1191 95.408C70.2671 95.12 71.8271 93.872 71.8271 92.576V92.168ZM72.1751 92.168H73.2551V92.576C73.2551 93.872 74.8271 95.12 76.9631 95.408L76.4951 96.392C74.0231 96.02 72.1751 94.52 72.1751 92.576V92.168ZM71.8871 97.892H73.1351V101.996H71.8871V97.892ZM67.5911 97.184H77.5031V98.204H67.5911V97.184ZM68.4911 91.652H76.5671V92.66H68.4911V91.652ZM81.8654 91.676H86.6414V92.684H81.8654V91.676ZM83.3894 94.088H84.6254V96.74H83.3894V94.088ZM86.1374 91.676H87.3854V92.324C87.3854 93.02 87.3854 94.004 87.1094 95.252L85.8854 95.144C86.1374 93.92 86.1374 93.02 86.1374 92.324V91.676ZM88.6814 91.028H89.9534V97.796H88.6814V91.028ZM89.4134 93.884H91.4054V94.928H89.4134V93.884ZM81.3374 97.184L81.2054 96.164C83.1854 96.164 85.8134 96.14 88.0094 95.852L88.0934 96.752C85.8374 97.136 83.2934 97.184 81.3374 97.184ZM86.3414 97.928C88.6334 97.928 90.0494 98.684 90.0494 99.944C90.0494 101.228 88.6334 101.972 86.3414 101.972C84.0494 101.972 82.6334 101.228 82.6334 99.944C82.6334 98.684 84.0494 97.928 86.3414 97.928ZM86.3414 98.9C84.8054 98.9 83.9054 99.272 83.9054 99.944C83.9054 100.628 84.8054 100.988 86.3414 100.988C87.8774 100.988 88.7654 100.628 88.7654 99.944C88.7654 99.272 87.8774 98.9 86.3414 98.9ZM94.9445 91.7H95.9885V92.972C95.9885 95.132 94.8845 96.92 92.9285 97.628L92.2565 96.644C94.0085 96.044 94.9445 94.58 94.9445 92.972V91.7ZM95.1845 91.7H96.2045V92.996C96.2045 94.436 97.1525 95.828 98.8205 96.404L98.1845 97.388C96.2765 96.728 95.1845 94.988 95.1845 92.996V91.7ZM99.6605 91.028H100.921V99.092H99.6605V91.028ZM100.549 94.304H102.469V95.348H100.549V94.304ZM93.9965 100.76H101.365V101.78H93.9965V100.76ZM93.9965 98.324H95.2685V101.276H93.9965V98.324ZM104.592 91.712H111.456V92.708H104.592V91.712ZM103.404 96.392H113.316V97.424H103.404V96.392ZM107.688 97.1H108.948V102.008H107.688V97.1ZM110.832 91.712H112.068V92.672C112.068 93.836 112.068 95.132 111.648 97.028L110.412 96.872C110.832 95.072 110.832 93.788 110.832 92.672V91.712ZM117.126 96.296H127.038V97.304H117.126V96.296ZM118.026 91.424H126.126V92.432H118.026V91.424ZM118.086 94.424H126.066V95.432H118.086V94.424ZM119.562 91.82H120.822V95.096H119.562V91.82ZM123.33 91.82H124.59V95.096H123.33V91.82ZM122.07 98.192C124.434 98.192 125.838 98.864 125.838 100.088C125.838 101.3 124.434 101.984 122.07 101.984C119.706 101.984 118.302 101.3 118.302 100.088C118.302 98.864 119.706 98.192 122.07 98.192ZM122.07 99.14C120.462 99.14 119.562 99.464 119.562 100.088C119.562 100.712 120.462 101.048 122.07 101.048C123.678 101.048 124.578 100.712 124.578 100.088C124.578 99.464 123.678 99.14 122.07 99.14ZM121.458 96.8H122.706V98.528H121.458V96.8ZM133.097 92.54H136.397V93.56H133.097V92.54ZM133.097 95.024H136.397V96.044H133.097V95.024ZM131.177 91.652C132.797 91.652 134.033 92.756 134.033 94.292C134.033 95.828 132.797 96.932 131.177 96.932C129.545 96.932 128.321 95.828 128.321 94.292C128.321 92.756 129.545 91.652 131.177 91.652ZM131.177 92.72C130.229 92.72 129.521 93.332 129.521 94.292C129.521 95.24 130.229 95.864 131.177 95.864C132.125 95.864 132.833 95.24 132.833 94.292C132.833 93.332 132.125 92.72 131.177 92.72ZM136.001 91.028H137.261V97.484H136.001V91.028ZM133.601 97.736C135.881 97.736 137.297 98.516 137.297 99.86C137.297 101.204 135.881 101.984 133.601 101.984C131.321 101.984 129.905 101.204 129.905 99.86C129.905 98.516 131.321 97.736 133.601 97.736ZM133.601 98.708C132.041 98.708 131.141 99.116 131.141 99.86C131.141 100.592 132.041 101 133.601 101C135.161 101 136.061 100.592 136.061 99.86C136.061 99.116 135.161 98.708 133.601 98.708ZM139.216 99.68H149.152V100.712H139.216V99.68ZM143.536 97.448H144.784V100.1H143.536V97.448ZM140.38 91.796H147.964V95.264H141.652V97.304H140.404V94.268H146.716V92.804H140.38V91.796ZM140.404 96.788H148.216V97.808H140.404V96.788ZM152.914 101V100.196C155.53 97.892 156.862 96.176 156.862 94.724C156.862 93.776 156.358 93.116 155.374 93.116C154.678 93.116 154.102 93.548 153.634 94.088L152.842 93.332C153.61 92.504 154.39 92.012 155.542 92.012C157.162 92.012 158.206 93.056 158.206 94.664C158.206 96.356 156.838 98.12 154.966 99.92C155.422 99.872 155.986 99.824 156.418 99.824H158.626V101H152.914ZM162.446 101.168C161.066 101.168 160.166 100.616 159.566 99.944L160.25 99.056C160.766 99.584 161.414 100.028 162.338 100.028C163.322 100.028 164.006 99.476 164.006 98.564C164.006 97.58 163.382 96.956 161.402 96.956V95.924C163.13 95.924 163.706 95.276 163.706 94.388C163.706 93.608 163.202 93.116 162.35 93.116C161.678 93.116 161.102 93.44 160.598 93.944L159.866 93.068C160.574 92.444 161.39 92.012 162.41 92.012C163.994 92.012 165.11 92.828 165.11 94.28C165.11 95.3 164.522 96.008 163.586 96.356V96.416C164.606 96.68 165.41 97.436 165.41 98.636C165.41 100.232 164.078 101.168 162.446 101.168ZM169.506 101.168C167.766 101.168 166.65 99.62 166.65 96.548C166.65 93.5 167.766 92.012 169.506 92.012C171.234 92.012 172.362 93.5 172.362 96.548C172.362 99.62 171.234 101.168 169.506 101.168ZM169.506 100.064C170.406 100.064 171.03 99.104 171.03 96.548C171.03 94.028 170.406 93.092 169.506 93.092C168.606 93.092 167.97 94.028 167.97 96.548C167.97 99.104 168.606 100.064 169.506 100.064ZM178.654 94.04H181.654V95.06H178.654V94.04ZM181.306 91.04H182.566V99.14H181.306V91.04ZM175.426 100.76H182.818V101.78H175.426V100.76ZM175.426 98.348H176.686V101.312H175.426V98.348ZM173.974 91.76H175.222V93.572H177.802V91.76H179.038V97.34H173.974V91.76ZM175.222 94.544V96.332H177.802V94.544H175.222ZM191.817 91.028H193.077V99.056H191.817V91.028ZM192.705 94.268H194.625V95.312H192.705V94.268ZM186.141 100.76H193.521V101.78H186.141V100.76ZM186.141 98.228H187.401V101.192H186.141V98.228ZM187.569 91.772C189.225 91.772 190.485 92.912 190.485 94.508C190.485 96.104 189.225 97.244 187.569 97.244C185.913 97.244 184.665 96.104 184.665 94.508C184.665 92.912 185.913 91.772 187.569 91.772ZM187.569 92.864C186.621 92.864 185.889 93.512 185.889 94.508C185.889 95.504 186.621 96.152 187.569 96.152C188.529 96.152 189.261 95.504 189.261 94.508C189.261 93.512 188.529 92.864 187.569 92.864ZM203.336 91.028H204.596V96.584H203.336V91.028ZM199.94 91.508H201.32C201.32 94.4 199.508 96.08 196.172 96.812L195.728 95.792C198.632 95.204 199.94 93.896 199.94 92.192V91.508ZM196.292 91.508H200.804V92.516H196.292V91.508ZM197.408 97.076H204.596V99.884H198.68V101.336H197.432V98.96H203.336V98.06H197.408V97.076ZM197.432 100.904H204.92V101.888H197.432V100.904ZM209.762 101V99.86H211.706V93.716H210.11V92.84C210.95 92.696 211.526 92.48 212.042 92.168H213.086V99.86H214.814V101H209.762ZM216.15 98.132V97.1H219.318V98.132H216.15ZM220.391 101V100.196C223.007 97.892 224.339 96.176 224.339 94.724C224.339 93.776 223.835 93.116 222.851 93.116C222.155 93.116 221.579 93.548 221.111 94.088L220.319 93.332C221.087 92.504 221.867 92.012 223.019 92.012C224.639 92.012 225.683 93.056 225.683 94.664C225.683 96.356 224.315 98.12 222.443 99.92C222.899 99.872 223.463 99.824 223.895 99.824H226.103V101H220.391ZM229.923 101.168C228.543 101.168 227.643 100.616 227.043 99.944L227.727 99.056C228.243 99.584 228.891 100.028 229.815 100.028C230.799 100.028 231.483 99.476 231.483 98.564C231.483 97.58 230.859 96.956 228.879 96.956V95.924C230.607 95.924 231.183 95.276 231.183 94.388C231.183 93.608 230.679 93.116 229.827 93.116C229.155 93.116 228.579 93.44 228.075 93.944L227.343 93.068C228.051 92.444 228.867 92.012 229.887 92.012C231.471 92.012 232.587 92.828 232.587 94.28C232.587 95.3 231.999 96.008 231.063 96.356V96.416C232.083 96.68 232.887 97.436 232.887 98.636C232.887 100.232 231.555 101.168 229.923 101.168Z" fill="#333333"/>
<path d="M58.54 112.88H59.37V114.53H58.54V112.88ZM61.79 112.88H62.61V114.53H61.79V112.88ZM60.57 113.98C62.55 113.98 63.67 114.47 63.67 115.38C63.67 116.29 62.55 116.77 60.57 116.77C58.6 116.77 57.47 116.29 57.47 115.38C57.47 114.47 58.6 113.98 60.57 113.98ZM60.57 114.6C59.13 114.6 58.32 114.87 58.32 115.38C58.32 115.89 59.13 116.15 60.57 116.15C62.02 116.15 62.82 115.89 62.82 115.38C62.82 114.87 62.02 114.6 60.57 114.6ZM56.92 108.48H64.19V109.14H56.92V108.48ZM60.58 109.48C62.44 109.48 63.5 109.92 63.5 110.77C63.5 111.61 62.44 112.05 60.58 112.05C58.71 112.05 57.66 111.61 57.66 110.77C57.66 109.92 58.71 109.48 60.58 109.48ZM60.58 110.07C59.27 110.07 58.54 110.31 58.54 110.77C58.54 111.22 59.27 111.47 60.58 111.47C61.88 111.47 62.61 111.22 62.61 110.77C62.61 110.31 61.88 110.07 60.58 110.07ZM60.17 107.6H60.99V108.9H60.17V107.6ZM56.49 112.59H64.66V113.25H56.49V112.59ZM72.2792 107.74H73.1092V116.78H72.2792V107.74ZM69.6292 108.71H70.4492C70.4492 111.33 69.2692 113.62 66.2492 115.1L65.8092 114.43C68.4192 113.17 69.6292 111.25 69.6292 108.85V108.71ZM66.2192 108.71H69.9892V109.39H66.2192V108.71ZM77.5648 108.39H78.3948V112.21H77.5648V108.39ZM77.5648 111.95H78.2848C79.5748 111.95 80.9248 111.86 82.4048 111.56L82.5048 112.24C80.9848 112.56 79.6248 112.65 78.2848 112.65H77.5648V111.95ZM83.3148 107.75H84.1448V114.28H83.3148V107.75ZM83.8848 110.42H85.4848V111.13H83.8848V110.42ZM78.5448 115.9H84.4648V116.58H78.5448V115.9ZM78.5448 113.64H79.3748V116.22H78.5448V113.64ZM86.334 112.19H94.504V112.87H86.334V112.19ZM90.004 110.74H90.824V112.47H90.004V110.74ZM87.364 110.48H93.554V111.16H87.364V110.48ZM87.364 108.15H93.484V108.82H88.184V110.88H87.364V108.15ZM90.404 113.52C92.334 113.52 93.504 114.11 93.504 115.14C93.504 116.19 92.334 116.77 90.404 116.77C88.474 116.77 87.304 116.19 87.304 115.14C87.304 114.11 88.474 113.52 90.404 113.52ZM90.404 114.16C88.994 114.16 88.144 114.52 88.144 115.14C88.144 115.77 88.994 116.12 90.404 116.12C91.824 116.12 92.664 115.77 92.664 115.14C92.664 114.52 91.824 114.16 90.404 114.16Z" fill="#D43A18"/>
<path d="M105.16 112.85H105.99V115.1H105.16V112.85ZM105.58 108.33C107.49 108.33 108.86 109.26 108.86 110.7C108.86 112.14 107.49 113.07 105.58 113.07C103.67 113.07 102.29 112.14 102.29 110.7C102.29 109.26 103.67 108.33 105.58 108.33ZM105.58 108.99C104.14 108.99 103.09 109.67 103.09 110.7C103.09 111.73 104.14 112.41 105.58 112.41C107.01 112.41 108.06 111.73 108.06 110.7C108.06 109.67 107.01 108.99 105.58 108.99ZM101.5 114.94H109.69V115.63H101.5V114.94ZM111.799 109.89H117.929V110.57H111.799V109.89ZM110.689 111.44H118.889V112.12H110.689V111.44ZM111.799 107.87H112.609V110.2H111.799V107.87ZM111.709 112.93H117.849V115.05H112.549V116.22H111.729V114.43H117.019V113.57H111.709V112.93ZM111.729 116.01H118.149V116.66H111.729V116.01ZM122.515 116V115.24H124.145V109.78H122.835V109.19C123.495 109.08 123.965 108.91 124.355 108.67H125.055V115.24H126.535V116H122.515ZM129.962 116.14C128.562 116.14 127.672 114.87 127.672 112.31C127.672 109.77 128.562 108.54 129.962 108.54C131.342 108.54 132.232 109.77 132.232 112.31C132.232 114.87 131.342 116.14 129.962 116.14ZM129.962 115.4C130.792 115.4 131.352 114.47 131.352 112.31C131.352 110.18 130.792 109.27 129.962 109.27C129.122 109.27 128.552 110.18 128.552 112.31C128.552 114.47 129.122 115.4 129.962 115.4ZM134.109 112.1C133.749 112.1 133.459 111.82 133.459 111.41C133.459 110.99 133.749 110.71 134.109 110.71C134.479 110.71 134.779 110.99 134.779 111.41C134.779 111.82 134.479 112.1 134.109 112.1ZM134.109 116.14C133.749 116.14 133.459 115.85 133.459 115.44C133.459 115.02 133.749 114.74 134.109 114.74C134.479 114.74 134.779 115.02 134.779 115.44C134.779 115.85 134.479 116.14 134.109 116.14ZM136.392 116V115.24H138.022V109.78H136.712V109.19C137.372 109.08 137.842 108.91 138.232 108.67H138.932V115.24H140.412V116H136.392ZM141.939 116V115.24H143.569V109.78H142.259V109.19C142.919 109.08 143.389 108.91 143.779 108.67H144.479V115.24H145.959V116H141.939Z" fill="#888888"/>
<path d="M105.16 112.85H105.99V115.1H105.16V112.85ZM105.58 108.33C107.49 108.33 108.86 109.26 108.86 110.7C108.86 112.14 107.49 113.07 105.58 113.07C103.67 113.07 102.29 112.14 102.29 110.7C102.29 109.26 103.67 108.33 105.58 108.33ZM105.58 108.99C104.14 108.99 103.09 109.67 103.09 110.7C103.09 111.73 104.14 112.41 105.58 112.41C107.01 112.41 108.06 111.73 108.06 110.7C108.06 109.67 107.01 108.99 105.58 108.99ZM101.5 114.94H109.69V115.63H101.5V114.94ZM111.799 109.89H117.929V110.57H111.799V109.89ZM110.689 111.44H118.889V112.12H110.689V111.44ZM111.799 107.87H112.609V110.2H111.799V107.87ZM111.709 112.93H117.849V115.05H112.549V116.22H111.729V114.43H117.019V113.57H111.709V112.93ZM111.729 116.01H118.149V116.66H111.729V116.01ZM122.515 116V115.24H124.145V109.78H122.835V109.19C123.495 109.08 123.965 108.91 124.355 108.67H125.055V115.24H126.535V116H122.515ZM129.962 116.14C128.562 116.14 127.672 114.87 127.672 112.31C127.672 109.77 128.562 108.54 129.962 108.54C131.342 108.54 132.232 109.77 132.232 112.31C132.232 114.87 131.342 116.14 129.962 116.14ZM129.962 115.4C130.792 115.4 131.352 114.47 131.352 112.31C131.352 110.18 130.792 109.27 129.962 109.27C129.122 109.27 128.552 110.18 128.552 112.31C128.552 114.47 129.122 115.4 129.962 115.4ZM134.109 112.1C133.749 112.1 133.459 111.82 133.459 111.41C133.459 110.99 133.749 110.71 134.109 110.71C134.479 110.71 134.779 110.99 134.779 111.41C134.779 111.82 134.479 112.1 134.109 112.1ZM134.109 116.14C133.749 116.14 133.459 115.85 133.459 115.44C133.459 115.02 133.749 114.74 134.109 114.74C134.479 114.74 134.779 115.02 134.779 115.44C134.779 115.85 134.479 116.14 134.109 116.14ZM136.392 116V115.24H138.022V109.78H136.712V109.19C137.372 109.08 137.842 108.91 138.232 108.67H138.932V115.24H140.412V116H136.392ZM141.939 116V115.24H143.569V109.78H142.259V109.19C142.919 109.08 143.389 108.91 143.779 108.67H144.479V115.24H145.959V116H141.939Z" fill="black" fill-opacity="0.2"/>
</svg>
